<svg width="55" height="55" viewBox="0 0 55 55" fill="none" xmlns="http://www.w3.org/2000/svg">
<path fill-rule="evenodd" clip-rule="evenodd" d="M14.3256 46.4519V8.36145C8.31615 12.5584 4.37817 19.5226 4.37817 27.4094C4.37817 35.2961 8.31615 42.2604 14.3256 46.4519Z" fill="#2B3379"/>
<path fill-rule="evenodd" clip-rule="evenodd" d="M27.186 50.611H27.9952C32.7693 50.5301 37.1874 49.0035 40.8448 46.4573V8.35605C37.0903 5.73973 32.5212 4.2023 27.5906 4.2023C22.66 4.2023 18.0801 5.73973 14.3256 8.36684V46.4519C17.983 49.0035 22.4119 50.5301 27.186 50.6164V50.611Z" fill="#F4D02F"/>
<path fill-rule="evenodd" clip-rule="evenodd" d="M40.8448 8.35607V46.4573C46.8651 42.2658 50.8031 35.2961 50.8031 27.404C50.8031 19.5119 46.8651 12.5476 40.8448 8.35068V8.35607Z" fill="#BB1F33"/>
</svg>
