<svg width="55" height="55" viewBox="0 0 55 55" fill="none" xmlns="http://www.w3.org/2000/svg">
<path fill-rule="evenodd" clip-rule="evenodd" d="M14.258 46.4519V8.36145C8.24858 12.5584 4.31061 19.5226 4.31061 27.4094C4.31061 35.2961 8.24858 42.2604 14.258 46.4519Z" fill="#3D9348"/>
<path fill-rule="evenodd" clip-rule="evenodd" d="M27.3504 50.611H27.6849C32.5507 50.5787 37.0605 49.0466 40.7719 46.4519V8.36145C37.0551 5.7667 32.5237 4.22927 27.6471 4.2023H27.3828C22.4954 4.22927 17.9802 5.76131 14.2526 8.36145V46.4519C17.9694 49.0466 22.4792 50.5787 27.3504 50.6164V50.611Z" fill="#F4F4F4"/>
<path fill-rule="evenodd" clip-rule="evenodd" d="M40.7719 8.36145V46.4573C46.7868 42.2658 50.7301 35.2961 50.7301 27.4094C50.7301 19.5226 46.7922 12.553 40.7719 8.36145Z" fill="#D61E34"/>
</svg>
