<svg width="55" height="55" viewBox="0 0 55 55" fill="none" xmlns="http://www.w3.org/2000/svg">
<path fill-rule="evenodd" clip-rule="evenodd" d="M27.167 50.7393H27.8952C40.5453 50.5451 50.7355 40.2363 50.7355 27.5377C50.7355 14.8391 40.3511 4.3306 27.5284 4.3306C14.7057 4.3306 4.32672 14.7204 4.32672 27.5377C4.32672 40.355 14.5223 50.5451 27.167 50.7393Z" fill="white"/>
<path fill-rule="evenodd" clip-rule="evenodd" d="M27.167 50.7393H27.8952C29.4057 50.7178 30.8784 50.5505 32.2971 50.2538V4.82149C30.7597 4.50322 29.1629 4.3306 27.523 4.3306C25.8831 4.3306 24.2971 4.50322 22.7489 4.82149V50.2484C24.1784 50.5451 25.6511 50.7124 27.1616 50.7339L27.167 50.7393Z" fill="#BD1F38"/>
<path fill-rule="evenodd" clip-rule="evenodd" d="M4.81762 32.3064H50.2446C50.5682 30.769 50.7355 29.1722 50.7355 27.5323C50.7355 25.8923 50.5682 24.301 50.2446 22.7581H4.81762C4.49395 24.2956 4.32672 25.8923 4.32672 27.5323C4.32672 29.1722 4.49395 30.7636 4.81762 32.3064Z" fill="#BD1F38"/>
</svg>
