<svg width="55" height="55" viewBox="0 0 55 55" fill="none" xmlns="http://www.w3.org/2000/svg">
<path fill-rule="evenodd" clip-rule="evenodd" d="M5.51855 19.7966H49.2894C46.1067 10.804 37.5456 4.35756 27.4741 4.3252H27.3338C17.2623 4.35756 8.7013 10.804 5.51855 19.7966Z" fill="#000101"/>
<path fill-rule="evenodd" clip-rule="evenodd" d="M5.51857 35.2734H49.2894C50.1471 32.8512 50.6165 30.2511 50.6165 27.5377C50.6165 24.8242 50.1525 22.2241 49.2894 19.802H5.51857C4.66624 22.2241 4.19153 24.8296 4.19153 27.5377C4.19153 30.2457 4.66624 32.8512 5.51857 35.2734Z" fill="#DF1E26"/>
<path fill-rule="evenodd" clip-rule="evenodd" d="M26.9724 50.7394H27.8301C37.7506 50.5559 46.1444 44.1581 49.284 35.268H5.51855C8.65814 44.1527 17.052 50.5505 26.9724 50.7394Z" fill="#F6D92A"/>
</svg>
