<svg width="55" height="55" viewBox="0 0 55 55" fill="none" xmlns="http://www.w3.org/2000/svg">
<path fill-rule="evenodd" clip-rule="evenodd" d="M5.70522 35.268H49.4761C50.3284 32.8512 50.8031 30.2457 50.8031 27.5377C50.8031 24.8296 50.3284 22.2187 49.4761 19.802H5.70522C4.84749 22.2187 4.37817 24.8242 4.37817 27.5377C4.37817 30.2511 4.8421 32.8512 5.70522 35.268Z" fill="white"/>
<path fill-rule="evenodd" clip-rule="evenodd" d="M27.2238 50.7394H27.9628C37.8995 50.5829 46.3311 44.1743 49.4814 35.268H5.7052C8.85558 44.1743 17.2764 50.5829 27.2238 50.7394Z" fill="#2C3382"/>
<path fill-rule="evenodd" clip-rule="evenodd" d="M5.7052 19.7966H49.476C46.2825 10.7824 37.6945 4.3252 27.5906 4.3252C17.4868 4.3252 8.88795 10.7878 5.7052 19.7966Z" fill="#CC202B"/>
<path fill-rule="evenodd" clip-rule="evenodd" d="M18.3606 19.57C21.2143 18.5612 24.3701 18.011 27.4557 18.0056C30.5414 17.9948 33.6918 18.4857 36.8044 19.597L39.1186 14.9253L37.4895 12.0878C37.4895 12.0878 34.5873 13.28 34.5657 13.28C34.5387 13.28 32.5158 11.0575 32.5158 11.0575L29.921 12.6273L27.4827 10.7608L25.1847 12.6003L22.4982 11.0467L20.54 13.3717L17.6108 12.1202L16.041 14.9253L18.3552 19.57H18.3606Z" fill="white"/>
<path fill-rule="evenodd" clip-rule="evenodd" d="M17.5892 12.1796L16.1057 14.9577L18.4199 19.543C21.2089 18.4857 24.3593 17.9463 27.4557 17.9355C30.7194 17.9355 33.832 18.4641 36.772 19.5107L39.0592 14.893L37.4355 12.1202C34.5926 13.3502 34.5818 13.3502 34.5656 13.3502C34.5225 13.3502 34.5063 13.3502 32.4618 11.1007L29.9534 12.6867L27.4341 10.8148L25.2224 12.6543L22.4604 11.1115L20.5939 13.4257L17.5838 12.1904L17.5892 12.1796ZM36.8421 19.6779L36.7828 19.6563C33.8428 18.6044 30.7302 18.0703 27.5258 18.0703C24.3755 18.0811 21.2359 18.6206 18.3876 19.6401L15.9924 14.9577L17.5622 12.0825L20.5723 13.307L22.4496 11.0036L25.2224 12.5356L27.4395 10.7069L29.9587 12.5734L32.4834 10.9982C33.3519 11.8721 34.5333 13.1722 34.6088 13.2315C34.625 13.1991 36.6857 12.3522 37.4679 12.0285L39.1779 14.893L36.8421 19.6833V19.6779Z" fill="#CC202B"/>
<path fill-rule="evenodd" clip-rule="evenodd" d="M33.2117 18.2753L34.5387 13.5875L37.3816 12.4385L38.8705 14.9523L36.7235 19.3434C35.4935 18.8525 34.83 18.6422 33.2171 18.2753H33.2117Z" fill="#3A7AA1"/>
<path fill-rule="evenodd" clip-rule="evenodd" d="M37.36 12.4439L34.5441 13.6037L33.2278 18.2807C34.857 18.626 35.5097 18.8364 36.7181 19.3272L38.8597 14.9415L37.36 12.4439ZM36.7289 19.365H36.7181C35.4989 18.8741 34.857 18.6637 33.2009 18.2969L34.5171 13.5875L37.3708 12.4277L38.8867 14.9469L36.7289 19.3704V19.365Z" fill="#5471B7"/>
<path fill-rule="evenodd" clip-rule="evenodd" d="M25.7295 17.7736L25.2818 12.9132L27.5475 11.1169L29.8995 12.9132L29.4895 17.7736C28.1894 17.7089 27.2616 17.7143 25.7349 17.7736H25.7295Z" fill="#3A7AA1"/>
<path fill-rule="evenodd" clip-rule="evenodd" d="M27.5259 11.133L25.2872 12.9294L25.7403 17.7736C27.2238 17.6819 28.1678 17.6927 29.4571 17.7628L29.8779 12.9132L27.5205 11.1384L27.5259 11.133ZM29.4895 17.7952H29.4787C28.1786 17.7197 27.2508 17.7251 25.7241 17.7952L25.2602 12.924L27.5205 11.1115L29.9048 12.9024L29.4841 17.8006L29.4895 17.7952Z" fill="#5471B7"/>
<path fill-rule="evenodd" clip-rule="evenodd" d="M18.4739 19.3434L16.3701 14.893L17.7726 12.4385L20.691 13.7062L21.921 18.2969C20.5885 18.572 19.8873 18.7986 18.4739 19.3434Z" fill="#3A7AA1"/>
<path fill-rule="evenodd" clip-rule="evenodd" d="M17.7727 12.4493L16.3863 14.8984L18.4847 19.3219C19.8441 18.7932 20.5724 18.5613 21.921 18.2807L20.6749 13.7116L17.7727 12.4547V12.4493ZM18.4631 19.365L16.3485 14.893L17.7619 12.4223L20.7019 13.6846L21.9372 18.2861C20.567 18.5828 19.8495 18.8202 18.4793 19.3542L18.4631 19.365Z" fill="#5471B7"/>
<path fill-rule="evenodd" clip-rule="evenodd" d="M18.0316 17.1101C18.679 17.1695 19.1267 17.1371 19.6877 16.9483C20.3458 16.6408 20.5454 16.2794 20.7504 15.9989C20.9069 16.5599 20.8475 17.0886 20.1031 17.5201C19.4342 17.8654 18.4686 17.7629 18.0316 17.1101Z" fill="white"/>
<path fill-rule="evenodd" clip-rule="evenodd" d="M19.2723 17.7305C18.7383 17.7305 18.2743 17.5093 18.01 17.1155C18.2204 17.1155 18.3984 17.1155 18.5656 17.1155C18.9594 17.1155 19.2939 17.0616 19.6769 16.9321C20.2919 16.6462 20.5023 16.3225 20.6965 16.042H20.7073C20.5131 16.3657 20.2757 16.684 19.6877 16.9591C19.1375 17.1479 18.6789 17.1857 18.0316 17.1209C18.4524 17.6712 19.4018 17.86 20.0923 17.4985C20.7073 17.1479 20.8313 16.7379 20.8044 16.3549C20.8637 16.7271 20.745 17.1641 20.1085 17.5309C19.8549 17.6604 19.5744 17.7305 19.2777 17.7305H19.2723Z" fill="white"/>
<path fill-rule="evenodd" clip-rule="evenodd" d="M28.1625 13.6684L28.033 13.7062L28.0438 13.9328L27.8873 13.9651L27.774 14.1647L27.8442 14.2241C27.8442 14.2241 27.7902 14.3751 27.801 14.3751L27.8388 14.4344L27.8819 14.5585L27.9898 14.5747L28.0168 14.715L28.184 14.7419L28.3351 14.8498L28.3459 14.9146H28.5239L28.648 14.9577L29.0687 14.9092L29.1227 14.8282L29.1335 14.7096H29.3546L29.3816 14.5154H29.4949L29.4787 14.305L29.5866 14.3158L29.5596 14.2079L29.5003 14.127L29.4841 13.9975L29.3061 13.8249L29.2737 13.6037L29.1604 13.5498L29.1496 13.3987L29.2791 13.2207L29.2683 13.156H29.1442L29.0579 13.2207C29.0579 13.2207 28.9447 13.2315 28.9447 13.2369V13.2908C28.9447 13.2908 28.9716 13.3879 28.9716 13.3933H28.8422L28.8314 13.2369L28.6372 13.1398C28.6372 13.1398 28.4645 13.2638 28.4645 13.2692L28.4538 13.4041L28.3674 13.4257L28.2811 13.2962L28.1301 13.2369H28.0438V13.334L28.2002 13.5444L28.1894 13.663L28.1625 13.6684Z" fill="#F4EB38"/>
<path fill-rule="evenodd" clip-rule="evenodd" d="M28.5131 14.8876L28.6263 14.92L29.0363 14.8768L29.0633 14.8067V14.7042L29.3276 14.661L29.3114 14.51L29.4679 14.4722L29.4139 14.2996L29.5542 14.2672L29.4301 14.1432L29.4139 13.9975L29.2467 13.8465L29.1928 13.5983C29.1208 13.5767 29.0849 13.557 29.0849 13.539L29.0741 13.3879L29.2036 13.1883L29.1065 13.1776L29.0471 13.2369C29.0471 13.2369 28.9338 13.2531 28.9176 13.2585C28.9536 13.3304 28.9716 13.37 28.9716 13.3772L28.8044 13.4095L28.7612 13.2153L28.594 13.156C28.594 13.156 28.4807 13.2477 28.4537 13.2693C28.4645 13.2693 28.4645 13.3825 28.4645 13.3825L28.4537 13.4095L28.3404 13.4419L28.2164 13.2962L28.0761 13.2531L28.0384 13.3124L28.1948 13.4958L28.184 13.6469L28.0276 13.7116L28.0653 13.9058L27.8819 13.9759L27.7956 14.154C27.8765 14.2025 27.8765 14.2133 27.8388 14.305C27.8064 14.305 27.8064 14.3158 27.8549 14.3805L27.8981 14.5208L27.9682 14.51L28.0276 14.688H28.157L28.3404 14.8067L28.3566 14.8876L28.4969 14.8606L28.5131 14.8876ZM28.6263 15.0009L28.3027 14.9577L28.2865 14.8606L28.1462 14.7797L27.9952 14.7635L27.9359 14.5855L27.8657 14.6017L27.7686 14.3104L27.8388 14.2295L27.7524 14.1971L27.8495 13.9436L28.033 13.8896L27.9952 13.7008L28.1462 13.6307L28.1355 13.539L27.9844 13.361L27.9736 13.2369V13.1991H28.0977L28.2649 13.2639L28.3728 13.4095L28.3998 13.2639C28.3998 13.2639 28.3998 13.2477 28.594 13.1128L28.8206 13.2045L28.8475 13.3933L28.9069 13.361L28.8691 13.3124C28.8691 13.2099 28.8799 13.2099 29.0255 13.1937L29.0849 13.129L29.2359 13.1182H29.2629L29.2791 13.2261L29.1496 13.4257L29.1658 13.5552L29.2521 13.5714L29.3114 13.8249L29.4679 13.9759L29.5812 14.305L29.4409 14.3428L29.5003 14.5154L29.3438 14.5532L29.3546 14.7042L29.1011 14.7474L29.128 14.8283L29.0687 14.9362L28.621 15.0009H28.6263Z" fill="#C0A12E"/>
<path fill-rule="evenodd" clip-rule="evenodd" d="M27.8442 14.2133L28.0276 14.2025L28.0599 14.3643L28.1193 14.4237L28.1301 14.7204L28.184 14.7419L28.2002 14.6233L28.3512 14.6125L28.3782 14.8552L28.3405 14.8876L28.3512 14.9253H28.5293L28.5616 14.8606L28.6695 14.8498L28.7073 14.9199L28.7343 14.8336L28.8206 14.7959L28.8907 14.9092L29.0202 14.893L28.9392 14.8228L28.9069 14.6664L29.0849 14.5747L29.155 14.6934H29.2144L29.1334 14.5639V14.2942L29.2629 14.1162L29.4463 14.1V14.0245L29.2629 13.8626L29.2198 13.6307L29.1119 13.5767L29.0849 13.6091L28.9716 13.6199L29.0849 13.7925V13.9004L29.1281 13.9274V14.2241L28.9986 14.2402L28.9878 14.4075L28.9069 14.4884C28.9069 14.4884 28.8637 14.6448 28.8529 14.6448L28.7828 14.7365H28.6318C28.6318 14.7365 28.5508 14.6664 28.5508 14.661L28.5347 14.5477L28.4807 14.5262L28.4483 14.4021L28.3512 14.3427L28.3405 14.2726L28.2541 14.2295L28.238 14.1647L28.1948 14.1324C28.184 14.1324 28.184 13.9489 28.184 13.9489L28.2703 13.9382L28.2164 13.8788L28.2056 13.8249V13.7709L28.2649 13.7008C28.2649 13.7008 28.1409 13.6846 28.1409 13.69C28.1409 13.69 28.0276 13.7439 28.0276 13.7386L28.0168 13.9597L27.8765 14.0029L27.7632 14.1809L27.8226 14.2348L27.8442 14.2133Z" fill="#C0A12E"/>
<path fill-rule="evenodd" clip-rule="evenodd" d="M29.1011 13.5983L28.977 13.6415L29.1172 13.7494L29.1712 14.1809L29.2413 14.0784L29.4517 14.0461L29.2413 13.8734L29.1874 13.6253L29.1011 13.5983ZM29.0201 14.2564L29.0309 14.3913L28.9446 14.4938C28.9123 14.6125 28.9015 14.6448 28.8907 14.661L29.0633 14.537L29.1065 14.5855C29.1065 14.5855 29.1065 14.5747 29.0957 14.5747V14.2834L29.1334 14.2295C29.0957 14.2403 29.0471 14.2564 29.0201 14.2618V14.2564ZM28.8961 14.9361C28.8134 14.8462 28.772 14.7959 28.772 14.7851L28.7288 14.8229V14.839L28.7127 14.7797C28.799 14.7473 28.8098 14.7473 28.8206 14.7473C28.8637 14.7797 28.9284 14.8768 28.9284 14.8768L29.0148 14.8444L28.9176 14.8337L28.8745 14.6556L28.8907 14.6448C28.8907 14.6448 28.8745 14.6448 28.8637 14.6448L28.8206 14.7258L28.6533 14.7419C28.5706 14.6736 28.5292 14.6341 28.5292 14.6233L28.5131 14.51C28.4591 14.5316 28.4591 14.5208 28.4268 14.3751L28.3297 14.3374L28.3189 14.2403L28.2326 14.2295L28.2164 14.1378C28.1804 14.1378 28.1624 14.0622 28.1624 13.9112V13.8788L28.2757 13.8626L28.3566 13.9274L28.2272 13.949C28.2272 13.949 28.2433 14.0784 28.2433 14.0892L28.3998 14.2187V14.3158L28.4807 14.3374C28.4969 14.3697 28.5239 14.4668 28.5346 14.483C28.594 14.5154 28.6156 14.6287 28.6156 14.6341L28.6749 14.688L28.799 14.6718C28.8349 14.6107 28.8583 14.5801 28.8691 14.5801L28.8799 14.4506L28.977 14.3535L28.9662 14.2133C28.9662 14.1881 29.0219 14.1683 29.1334 14.1539L29.0525 13.7655L28.9446 13.6199L29.0957 13.5444L29.2467 13.5713L29.3168 13.8303L29.5003 13.9813V14.073L29.2791 14.1324L29.1712 14.2888L29.182 14.537C29.182 14.537 29.2413 14.6395 29.2521 14.6502L29.155 14.7096L29.0471 14.5747L28.923 14.6826L29.0363 14.8498L28.8961 14.9308V14.9361ZM28.3243 14.9523L28.3081 14.893V14.6125L28.211 14.6556L28.2272 14.7366L28.2164 14.7851L28.1085 14.7473L28.0761 14.4129L27.979 14.2079L27.8226 14.2457L27.7524 14.1863L27.8549 13.9544L28.0114 13.895C28.0114 13.895 27.9952 13.7278 27.9952 13.717C28.0383 13.6684 28.1193 13.6361 28.1355 13.6307C28.1786 13.6199 28.2865 13.6415 28.2865 13.6415L28.2326 13.8411L28.1732 13.8033L28.2272 13.7062C28.2272 13.7062 28.1732 13.7062 28.1678 13.7062C28.184 13.717 28.1247 13.7386 28.0707 13.7494C28.0815 13.7655 28.0815 13.8303 28.0815 13.9436L27.9035 14.0245L27.8172 14.1863L28.0168 14.1701L28.0977 14.3643L28.1678 14.7258V14.6233L28.3458 14.5801L28.416 14.8498L28.389 14.8876L28.567 14.866L28.5562 14.9469L28.3297 14.9685L28.3243 14.9523Z" fill="#C0A12E"/>
<path fill-rule="evenodd" clip-rule="evenodd" d="M28.5562 14.5154L28.6533 14.456L28.6425 14.3536L28.5562 14.332L28.5184 14.2996L28.6263 14.3158L28.7504 14.305L28.7936 14.2888C28.7774 14.3266 28.7612 14.3266 28.7612 14.3266C28.7504 14.3266 28.6911 14.3589 28.6911 14.3589V14.4614C28.6911 14.4614 28.9122 14.4884 28.9014 14.4884C28.9014 14.4884 28.9014 14.5262 28.8907 14.5262L28.6695 14.4776L28.54 14.5585L28.5562 14.51V14.5154Z" fill="#613F22"/>
<path fill-rule="evenodd" clip-rule="evenodd" d="M28.4915 14.6125L28.5346 14.5046L28.6371 14.4399L28.6102 14.3374L28.6641 14.3481V14.3374L28.745 14.305V14.3212L28.6911 14.3751L28.7019 14.456C28.8493 14.4632 28.9194 14.4722 28.9122 14.483C28.8853 14.5423 28.8745 14.5423 28.6641 14.4938L28.4861 14.6071L28.4915 14.6125Z" fill="#C0A12E"/>
<path fill-rule="evenodd" clip-rule="evenodd" d="M29.0903 13.8842L28.9662 13.9813L28.8853 14.1162L28.8475 14.127L28.7235 13.9705H28.5832C28.5832 13.9705 28.5131 14.1539 28.5131 14.1593H28.4537L28.3135 14.0029L28.2703 13.922L28.6371 13.9328L28.6264 13.7601C28.6264 13.7601 28.5724 13.744 28.5454 13.7278C28.5616 13.717 28.7396 13.717 28.7396 13.717L28.6695 13.7709V13.9166H28.977L29.0849 13.895L29.0903 13.8842Z" fill="#C0A12E"/>
<path fill-rule="evenodd" clip-rule="evenodd" d="M28.6695 13.9166L28.2757 13.949L28.4861 14.1216C28.4861 14.1216 28.5185 14.0461 28.5562 13.949L28.6695 13.9328V13.9166ZM28.5131 14.1971L28.4537 14.1863L28.2703 13.9921L28.2433 13.8896L28.6479 13.8734L28.6048 13.7548L28.6479 13.7332C28.6479 13.7332 28.6102 13.744 28.6048 13.744C28.567 13.6685 28.6318 13.6685 28.7558 13.6685H28.8799L28.7019 13.7925L28.7181 13.9004L29.0957 13.8411L28.9123 14.1324L28.826 14.1432L28.7019 13.9813L28.6048 14.0029C28.6048 14.0029 28.5616 14.1486 28.5616 14.1647L28.5185 14.1971H28.5131Z" fill="#C0A12E"/>
<path fill-rule="evenodd" clip-rule="evenodd" d="M28.4484 13.9651H28.4861C28.4861 13.9651 28.5131 13.9759 28.5131 13.9867V14.0191C28.5131 14.0191 28.4969 14.0461 28.4861 14.0461H28.4484C28.4484 14.0461 28.4214 14.0353 28.4214 14.0191V13.9867C28.4214 13.9867 28.4376 13.9651 28.4484 13.9651Z" fill="#613F22"/>
<path fill-rule="evenodd" clip-rule="evenodd" d="M28.8421 13.9435H28.8799C28.8799 13.9435 28.9068 13.9543 28.9068 13.9759V14.0029C28.9068 14.0029 28.8906 14.0299 28.8799 14.0299H28.8421C28.8421 14.0299 28.8151 14.0191 28.8151 14.0029V13.9759C28.8151 13.9759 28.8313 13.9435 28.8421 13.9435Z" fill="#613F22"/>
<path fill-rule="evenodd" clip-rule="evenodd" d="M28.2811 13.717L28.2379 13.6954L28.2487 13.6469C28.3728 13.5983 28.4699 13.566 28.6263 13.5444C28.7828 13.5282 28.9068 13.5444 29.0363 13.5767C28.896 13.6307 28.772 13.6145 28.6263 13.6253C28.4861 13.6361 28.3997 13.6738 28.2865 13.717H28.2811Z" fill="#C0A12E"/>
<path fill-rule="evenodd" clip-rule="evenodd" d="M28.308 13.4203H28.2055L28.0545 13.2531L28.1408 13.2693L28.2379 13.3124L28.308 13.4203Z" fill="#C0A12E"/>
<path fill-rule="evenodd" clip-rule="evenodd" d="M28.389 13.4527H28.2056L27.952 13.2099L28.2541 13.2746L28.389 13.4527Z" fill="#C0A12E"/>
<path fill-rule="evenodd" clip-rule="evenodd" d="M28.9608 13.3556L29.1928 13.1722L29.1172 13.1614L29.0309 13.2477L28.923 13.2639L28.9608 13.3556Z" fill="#C0A12E"/>
<path fill-rule="evenodd" clip-rule="evenodd" d="M28.8206 13.3933L28.4376 13.4041L28.4484 13.361L28.5778 13.3502L28.594 13.2908H28.6372L28.6749 13.3394L28.8044 13.361L28.8206 13.3825V13.3933Z" fill="#C0A12E"/>
<path fill-rule="evenodd" clip-rule="evenodd" d="M28.389 13.4419L28.3944 13.361L28.5724 13.3124L28.5023 13.361L28.6263 13.3556L28.6048 13.3124L28.8097 13.3286L28.8421 13.3933L28.8205 13.4257L28.389 13.4419Z" fill="#C0A12E"/>
<path fill-rule="evenodd" clip-rule="evenodd" d="M28.7936 13.2531H28.6695L28.6533 13.183L28.7936 13.2531Z" fill="#C0A12E"/>
<path fill-rule="evenodd" clip-rule="evenodd" d="M28.5724 13.183L28.5616 13.2531L28.4321 13.2747L28.5724 13.183Z" fill="#C0A12E"/>
<path fill-rule="evenodd" clip-rule="evenodd" d="M27.8442 14.483L27.9143 14.3158L27.855 14.2079L27.801 14.3751L27.8442 14.483Z" fill="#C0A12E"/>
<path fill-rule="evenodd" clip-rule="evenodd" d="M27.9736 14.5693L28.0653 14.3805L27.9035 14.5316L27.9736 14.5693Z" fill="#C0A12E"/>
<path fill-rule="evenodd" clip-rule="evenodd" d="M28.0006 14.6233L27.8873 14.5693L28.0275 14.3589L27.9304 14.5585L27.9736 14.5693L27.9412 14.5531L28.0275 14.3481L28.0006 14.6233Z" fill="#C0A12E"/>
<path fill-rule="evenodd" clip-rule="evenodd" d="M26.064 13.7386L25.9345 13.771L25.9453 13.9975L25.7889 14.0353L25.681 14.2349L25.7403 14.2942L25.6864 14.4453C25.6972 14.4453 25.7295 14.4992 25.7295 14.4992L25.7727 14.6233L25.8806 14.6395L25.9075 14.7851L26.0748 14.8121L26.2258 14.92L26.2366 14.9847H26.4146L26.5387 15.0225L26.9595 14.9793L27.0134 14.893L27.0242 14.7743H27.2454L27.2723 14.5801H27.3856L27.3694 14.3697L27.4773 14.3805L27.4504 14.278L27.391 14.1971L27.3748 14.0676L27.1968 13.8896L27.1645 13.6685L27.0512 13.6199L27.0404 13.4689L27.1698 13.2908L27.1591 13.2207H27.035L26.9487 13.2908L26.8354 13.3016V13.3556L26.8624 13.4581H26.7329L26.7221 13.3016L26.5279 13.2045C26.5279 13.2045 26.3499 13.3232 26.3499 13.3286L26.3391 13.4689L26.2528 13.4904L26.1665 13.361L26.0154 13.3016H25.9291V13.3987L26.0856 13.6091L26.0748 13.7332L26.064 13.7386Z" fill="#F4EB38"/>
<path fill-rule="evenodd" clip-rule="evenodd" d="M26.4146 14.9523L26.5387 14.9901L26.9433 14.9415L26.9703 14.8768V14.7743L27.2346 14.7312L27.2184 14.5801L27.3749 14.5477L27.3209 14.3751L27.4612 14.3374L27.3371 14.2133L27.3209 14.0676L27.1537 13.9166L27.1105 13.6684C27.035 13.6469 26.9972 13.6289 26.9972 13.6145L26.9865 13.4634L27.1159 13.2639H27.0188L26.9595 13.3178C26.9595 13.3178 26.8354 13.3394 26.83 13.3394C26.8696 13.4113 26.8894 13.4509 26.8894 13.4581L26.7113 13.4958L26.6682 13.3016L26.5009 13.2423C26.5009 13.2423 26.3985 13.334 26.3715 13.3502V13.4688L26.3607 13.4904L26.2528 13.5228L26.1233 13.3771L25.9831 13.334L25.9561 13.3933L26.1072 13.5767L26.0964 13.7278L25.9399 13.7925L25.9777 13.9813L25.7943 14.0568L25.708 14.2403C25.7889 14.2834 25.7889 14.2942 25.7457 14.4021C25.7457 14.4021 25.7547 14.4219 25.7727 14.4614L25.8158 14.5909L25.8968 14.5801L25.9507 14.7581H26.091L26.269 14.8768L26.2852 14.9631L26.4254 14.9308L26.4146 14.9523ZM26.5279 15.071L26.2043 15.0225L26.1881 14.9254L26.0478 14.8444L25.8968 14.8283L25.8374 14.6502L25.7673 14.6664L25.6702 14.3967C25.6864 14.3589 25.6972 14.3158 25.708 14.2996L25.6486 14.2187L25.7511 14.0191L25.9345 13.9597L25.9022 13.7709L26.0586 13.7062L26.0424 13.6145L25.8914 13.4311L25.8806 13.3124V13.2692L26.0047 13.28L26.1719 13.3394L26.2798 13.485L26.3067 13.3448C26.3067 13.3448 26.3067 13.3232 26.5009 13.1937L26.7275 13.28L26.7545 13.4742L26.8138 13.4365L26.7761 13.3879C26.7761 13.3196 26.8282 13.28 26.9325 13.2692L26.9918 13.2099L27.1429 13.1991H27.1699L27.186 13.3016L27.0566 13.5066L27.0674 13.6361L27.1645 13.6523L27.2238 13.9058L27.3802 14.0568L27.4935 14.3859L27.3533 14.4237L27.4126 14.5909L27.2562 14.6341L27.2724 14.7851L27.008 14.8283L27.0458 14.9038L26.9757 15.0117L26.5279 15.0818V15.071Z" fill="#C0A12E"/>
<path fill-rule="evenodd" clip-rule="evenodd" d="M25.7457 14.278L25.9291 14.2672L25.9669 14.4291L26.0262 14.483L26.037 14.7797L26.0909 14.8013L26.1071 14.6826L26.2582 14.6718L26.2851 14.9146L26.2528 14.9469L26.2636 14.9847H26.4416L26.4793 14.92C26.4793 14.92 26.5764 14.9092 26.5764 14.92L26.6196 14.9901L26.6466 14.8984C26.6466 14.8984 26.7329 14.8606 26.7329 14.866L26.803 14.9739L26.9325 14.9631L26.8516 14.893L26.8138 14.7366L26.9918 14.6449L27.0619 14.7635H27.1213L27.0404 14.6287V14.3589L27.1698 14.1809L27.3532 14.1594V14.0838L27.1698 13.922L27.1267 13.69L27.0188 13.6415L26.9918 13.6685L26.8785 13.6792L26.9918 13.8465V13.949L27.0458 13.9813L27.035 14.2726L26.9055 14.2942L26.8947 14.4614L26.8138 14.5424C26.8138 14.5424 26.7706 14.6988 26.7598 14.6988L26.6897 14.7905H26.5387C26.5387 14.7905 26.4578 14.7204 26.4578 14.7096L26.4416 14.6017L26.3876 14.5801C26.3768 14.5801 26.3499 14.4507 26.3499 14.4507L26.2528 14.3967L26.242 14.3212L26.1557 14.2834L26.1395 14.2133L26.0963 14.1809C26.0855 14.1809 26.0855 13.9921 26.0855 13.9921L26.1719 13.9813L26.1179 13.922L26.1071 13.868V13.8141L26.1772 13.744C26.1772 13.744 26.0478 13.7278 26.0478 13.7332L25.9345 13.7871L25.9237 14.0083L25.7834 14.0515L25.6702 14.2295L25.7295 14.278H25.7457Z" fill="#C0A12E"/>
<path fill-rule="evenodd" clip-rule="evenodd" d="M27.0026 13.6685L26.8785 13.7116L27.0296 13.8195L27.0727 14.2511L27.1428 14.1486L27.3532 14.1108L27.1428 13.9328L27.0889 13.6846L27.0026 13.6631V13.6685ZM26.803 15.0117C26.7275 14.9218 26.6897 14.8714 26.6897 14.8606L26.6358 14.893V14.9146L26.6196 14.8552C26.7059 14.8229 26.7167 14.8229 26.7275 14.8229L26.83 14.9523L26.9163 14.92H26.8192L26.776 14.742L26.9702 14.6071L27.0134 14.661C27.0134 14.661 27.0134 14.6502 27.0026 14.6502V14.3589L27.035 14.305C27.0026 14.3212 26.9486 14.332 26.9271 14.3374C26.9379 14.3536 26.9271 14.4722 26.9271 14.4722L26.8408 14.5747C26.812 14.6862 26.785 14.742 26.7598 14.742L26.7167 14.8229L26.5495 14.8391C26.4667 14.7707 26.4254 14.7294 26.4254 14.715L26.4092 14.6071C26.3553 14.6179 26.3553 14.6071 26.3229 14.4668L26.2258 14.4291L26.215 14.332L26.1287 14.3158L26.1125 14.2295C26.0765 14.2295 26.0586 14.154 26.0586 14.0029V13.9705L26.1718 13.949L26.2528 14.0137L26.1233 14.0407C26.1233 14.0407 26.1395 14.1647 26.1395 14.1809L26.2959 14.305L26.3067 14.4021L26.3768 14.4291C26.3768 14.4291 26.42 14.5531 26.4308 14.5693C26.4901 14.5963 26.5117 14.7204 26.5117 14.7204C26.5117 14.7096 26.571 14.7743 26.571 14.7743L26.6951 14.7635C26.7311 14.7024 26.7544 14.6718 26.7652 14.6718L26.776 14.5424L26.8731 14.4507L26.8623 14.3104C26.8623 14.278 26.8785 14.278 27.0296 14.2511L26.9486 13.8573L26.8408 13.7116L26.981 13.6415L27.1375 13.6631L27.2076 13.922L27.391 14.0784V14.1647L27.1698 14.2241L27.0673 14.3859L27.0781 14.6341C27.0781 14.6341 27.1375 14.7312 27.1482 14.742H27.1375L27.0511 14.8013L26.9432 14.6718L26.83 14.7743L26.9432 14.9362L26.7922 15.0171L26.803 15.0117ZM26.2312 15.0225L26.215 14.9631V14.6826L26.1179 14.7258L26.1341 14.8121L26.1233 14.8606L26.0208 14.8229L25.983 14.483L25.8859 14.2726L25.7295 14.3158L25.6594 14.2565L25.7673 14.0299L25.9237 13.9705C25.9237 13.9705 25.9075 13.8087 25.9075 13.7871C25.9507 13.744 26.0316 13.7062 26.0478 13.7062C26.0909 13.6954 26.1988 13.7062 26.1988 13.7062L26.1449 13.9058L26.0855 13.868L26.1395 13.7602C26.1395 13.7602 26.0855 13.7602 26.0801 13.7709C26.0963 13.7817 26.037 13.7979 25.9938 13.8141V14.0029L25.8158 14.0838L25.7295 14.2511L25.9291 14.2295L26.01 14.4237L26.0801 14.7851V14.6826L26.2582 14.6449L26.3283 14.9146L26.3013 14.9469L26.4793 14.9254L26.4685 15.0063L26.242 15.0279L26.2312 15.0225Z" fill="#C0A12E"/>
<path fill-rule="evenodd" clip-rule="evenodd" d="M26.4577 14.5801L26.5548 14.5262L26.5441 14.4183L26.4577 14.3967L26.42 14.3644L26.5279 14.3751L26.6519 14.3644L26.6951 14.3428C26.6789 14.3859 26.6573 14.3859 26.6573 14.3859C26.6466 14.3859 26.5872 14.4183 26.5872 14.4183V14.5208C26.5872 14.5208 26.8084 14.5478 26.7976 14.5478C26.7976 14.5478 26.7976 14.5909 26.7868 14.5909L26.5656 14.5424L26.4362 14.6233L26.4523 14.5747L26.4577 14.5801Z" fill="#613F22"/>
<path fill-rule="evenodd" clip-rule="evenodd" d="M26.3984 14.6772L26.4416 14.5693L26.5495 14.5046L26.5225 14.4075L26.5657 14.4183V14.4075L26.652 14.3751L26.6628 14.3859L26.6034 14.4399L26.6142 14.5208C26.7617 14.528 26.8318 14.5388 26.8246 14.5531C26.8174 14.5675 26.7347 14.5711 26.5765 14.5639L26.3984 14.6718V14.6772Z" fill="#C0A12E"/>
<path fill-rule="evenodd" clip-rule="evenodd" d="M27.0026 13.9489L26.8786 14.046L26.7922 14.1809L26.7545 14.1917L26.6304 14.0299H26.4901L26.4092 14.2187H26.3553L26.215 14.0622L26.1719 13.9813H26.5387L26.5279 13.8087C26.5279 13.8087 26.474 13.7925 26.447 13.7763C26.4632 13.7655 26.6412 13.7655 26.6412 13.7655L26.5711 13.8141V13.9651H26.8786L26.9918 13.9382L27.0026 13.9489Z" fill="#C0A12E"/>
<path fill-rule="evenodd" clip-rule="evenodd" d="M26.5711 13.9867L26.1773 14.0191L26.3876 14.1917C26.3984 14.1593 26.42 14.1108 26.4578 14.0137L26.5711 13.9975V13.9867ZM26.4146 14.2565H26.3553L26.1719 14.0622L26.1449 13.9598L26.5495 13.9436L26.5063 13.8195L26.5441 13.8033C26.5441 13.8033 26.5171 13.8141 26.5063 13.8141C26.474 13.7386 26.5441 13.7332 26.6574 13.7332H26.7868L26.6034 13.8573L26.6196 13.9705L26.9864 13.9112L26.8084 14.2025H26.7221L26.598 14.0515L26.5009 14.0676C26.5009 14.0676 26.4578 14.2187 26.4578 14.2349L26.4146 14.2565Z" fill="#C0A12E"/>
<path fill-rule="evenodd" clip-rule="evenodd" d="M26.3553 14.0299H26.3876C26.3876 14.0299 26.4146 14.0407 26.4146 14.0515V14.0838C26.4146 14.0838 26.3984 14.1108 26.3876 14.1108H26.3553C26.3553 14.1108 26.3283 14.1 26.3283 14.0838V14.0515C26.3283 14.0515 26.3445 14.0299 26.3553 14.0299Z" fill="#613F22"/>
<path fill-rule="evenodd" clip-rule="evenodd" d="M26.7491 14.0137H26.7814C26.7814 14.0137 26.8084 14.0245 26.8084 14.0406V14.073C26.8084 14.073 26.7922 14.0946 26.7814 14.0946H26.7491C26.7491 14.0946 26.7221 14.0838 26.7221 14.073V14.0406C26.7221 14.0406 26.7329 14.0137 26.7491 14.0137Z" fill="#613F22"/>
<path fill-rule="evenodd" clip-rule="evenodd" d="M26.1934 13.7817L26.1395 13.7601L26.1556 13.7116C26.2689 13.6684 26.366 13.6307 26.5225 13.6145C26.6789 13.5929 26.7922 13.6145 26.9325 13.6415C26.7814 13.6954 26.6681 13.6738 26.5279 13.69C26.3768 13.7008 26.2905 13.7386 26.188 13.7817H26.1934Z" fill="#C0A12E"/>
<path fill-rule="evenodd" clip-rule="evenodd" d="M26.2151 13.4904H26.1072L25.9561 13.3232L26.0478 13.334L26.1449 13.3771L26.2151 13.4904Z" fill="#C0A12E"/>
<path fill-rule="evenodd" clip-rule="evenodd" d="M26.2905 13.5228H26.1071L25.8536 13.2747L26.1611 13.3448L26.2905 13.5228Z" fill="#C0A12E"/>
<path fill-rule="evenodd" clip-rule="evenodd" d="M26.8623 13.4203L27.1051 13.2423L27.0188 13.2315L26.9325 13.3124L26.8246 13.3286L26.8623 13.4203Z" fill="#C0A12E"/>
<path fill-rule="evenodd" clip-rule="evenodd" d="M26.7221 13.4581L26.3337 13.4689L26.3445 13.4311L26.4847 13.4203L26.4955 13.361H26.5387L26.5764 13.4203L26.7059 13.4365L26.7221 13.4581Z" fill="#C0A12E"/>
<path fill-rule="evenodd" clip-rule="evenodd" d="M26.3013 13.512V13.4257L26.4739 13.3771L26.4038 13.4311L26.5224 13.4257L26.5117 13.3771L26.7112 13.3987L26.749 13.4581L26.722 13.4958L26.3013 13.512Z" fill="#C0A12E"/>
<path fill-rule="evenodd" clip-rule="evenodd" d="M26.7059 13.3178H26.5657L26.5549 13.2531L26.7059 13.3178Z" fill="#C0A12E"/>
<path fill-rule="evenodd" clip-rule="evenodd" d="M26.4739 13.2531L26.4685 13.3232L26.3337 13.3448L26.4739 13.2531Z" fill="#C0A12E"/>
<path fill-rule="evenodd" clip-rule="evenodd" d="M25.7565 14.5478L25.8158 14.3859L25.7565 14.2726L25.6971 14.4399L25.7565 14.5478Z" fill="#C0A12E"/>
<path fill-rule="evenodd" clip-rule="evenodd" d="M25.8859 14.6395L25.9669 14.4453L25.8104 14.6017L25.8859 14.6395Z" fill="#C0A12E"/>
<path fill-rule="evenodd" clip-rule="evenodd" d="M25.9075 14.688L25.7943 14.6341L25.9345 14.4237L25.8374 14.6233L25.886 14.6394L25.8428 14.6233L25.9345 14.4183L25.9075 14.688Z" fill="#C0A12E"/>
<path fill-rule="evenodd" clip-rule="evenodd" d="M29.5219 17.7683L29.9426 12.9024L32.5212 11.4189L34.5117 13.5767L33.1793 18.2699C31.9008 18.0056 31.1618 17.8923 29.5219 17.7683Z" fill="#2C3382"/>
<path fill-rule="evenodd" clip-rule="evenodd" d="M32.505 11.4243L29.9534 12.9132L29.5434 17.7683C31.1564 17.8762 31.9008 17.9894 33.1739 18.2484L34.4956 13.5714L32.505 11.4243ZM33.1955 18.2861H33.1793C31.9008 18.0218 31.151 17.9031 29.5219 17.7844L29.9264 12.897L32.5158 11.4028L34.5225 13.5714L33.1955 18.2915V18.2861Z" fill="#2A2875"/>
<path fill-rule="evenodd" clip-rule="evenodd" d="M27.1536 15.5565L27.0242 15.5835L27.035 15.8154L26.8785 15.8478L26.7706 16.0528L26.83 16.1121L26.776 16.2632C26.7868 16.2632 26.8192 16.3171 26.8192 16.3171L26.8623 16.4466L26.9702 16.4574L26.9972 16.6084L27.1644 16.63L27.3155 16.7379L27.3263 16.808H27.5043L27.6284 16.8512L28.0491 16.7972L28.1031 16.7163V16.5976L28.3296 16.5868L28.3458 16.4034H28.4699L28.4591 16.193L28.5562 16.2038L28.5292 16.1013L28.4699 16.0204L28.4591 15.891L28.2757 15.7183L28.2433 15.4918L28.13 15.4378L28.1193 15.2868L28.2487 15.1142L28.2325 15.044H28.1193L28.0329 15.1142L27.9197 15.1249V15.1789L27.9466 15.2814H27.8172L27.8064 15.1249L27.6122 15.0332C27.6122 15.0332 27.4342 15.1519 27.4342 15.1573L27.4234 15.2976L27.3371 15.3191L27.2507 15.1897L27.0997 15.1303H27.0134V15.2274L27.1698 15.4324L27.159 15.5619L27.1536 15.5565Z" fill="#F4EB38"/>
<path fill-rule="evenodd" clip-rule="evenodd" d="M27.5043 16.7703L27.6176 16.8026L28.0276 16.7595L28.06 16.6894L28.0492 16.5923L28.3135 16.5491L28.2973 16.3981L28.4538 16.3603L28.3998 16.1877L28.5401 16.1553L28.416 16.0366L28.3998 15.8856L28.2326 15.7345L28.1894 15.4918C28.1139 15.4666 28.0761 15.4468 28.0761 15.4324L28.0653 15.2814L28.1948 15.0818L28.0977 15.071L28.0384 15.1304C28.0384 15.1304 27.9143 15.1519 27.9089 15.1519C27.9449 15.2239 27.9629 15.2634 27.9629 15.2706L27.7956 15.3084L27.7525 15.1088L27.5852 15.0548C27.5852 15.0548 27.472 15.1465 27.445 15.1627C27.4558 15.1627 27.4558 15.276 27.4558 15.276L27.445 15.303L27.3371 15.3353L27.2076 15.1897L27.0674 15.1519L27.0296 15.2113L27.186 15.3893L27.1753 15.5403L27.0188 15.5997L27.0512 15.7939L26.8678 15.864L26.7815 16.0474C26.8624 16.0906 26.8624 16.1014 26.8246 16.1985C26.7869 16.2093 26.7869 16.2092 26.8408 16.2794L26.884 16.4088L26.9541 16.3981L27.0134 16.5761H27.1429L27.3263 16.6948L27.3425 16.7757L27.4827 16.7487L27.5043 16.7703ZM27.6176 16.889L27.2939 16.8404L27.2778 16.7433L27.1375 16.6624L26.9865 16.6408L26.9271 16.4628L26.857 16.479L26.7437 16.1715L26.7329 16.0312L26.8408 15.8262L27.0242 15.7777L26.9865 15.5835L27.1429 15.5134L27.1267 15.427L26.9703 15.2436V15.0818L27.0943 15.0926L27.2616 15.1519L27.3695 15.2976L27.3964 15.1519C27.3964 15.1519 27.3964 15.1357 27.5906 15.0009L27.8172 15.0872L27.8442 15.2814L27.9035 15.2436L27.8658 15.1951C27.8658 15.1268 27.9179 15.0872 28.0222 15.0764L28.0815 15.0117L28.2218 15.0009H28.2542L28.2703 15.1088L28.1409 15.3138L28.1571 15.4432L28.2434 15.4594L28.3027 15.713L28.4591 15.864L28.5724 16.1931L28.4322 16.2308L28.4915 16.3981L28.3243 16.4412L28.3513 16.5923L28.0869 16.63L28.1247 16.7109L28.0546 16.8188L27.6068 16.889H27.6176Z" fill="#C0A12E"/>
<path fill-rule="evenodd" clip-rule="evenodd" d="M26.8354 16.096L27.0188 16.0852L27.0458 16.247L27.1159 16.3009L27.1267 16.5976L27.1807 16.6192L27.1968 16.5005L27.3479 16.4898L27.3749 16.7325L27.3371 16.7649L27.3479 16.8026H27.5259L27.5583 16.7379C27.5583 16.7379 27.6554 16.7271 27.6554 16.7379L27.6877 16.8026L27.7255 16.7163L27.8118 16.6786L27.8819 16.7972L28.0114 16.7757L27.9305 16.7055L27.8981 16.5545L28.0761 16.4628L28.1463 16.5815H28.2056L28.1247 16.4466V16.1769L28.2542 15.9989L28.4376 15.9773V15.9018L28.2542 15.7345L28.211 15.508L28.1085 15.454L28.0815 15.4918L27.9683 15.5026L28.0815 15.6698V15.7723L28.1355 15.7993L28.1247 16.096L27.9952 16.1175L27.9844 16.2848L27.9035 16.3657C27.9035 16.3657 27.8604 16.5167 27.8496 16.5167L27.7794 16.6138H27.6284C27.6284 16.6138 27.5475 16.5383 27.5475 16.5329L27.5313 16.4196L27.4774 16.4034L27.445 16.274L27.3479 16.22L27.3371 16.1445L27.2508 16.1067C27.2508 16.1067 27.2346 16.0366 27.2346 16.0312C27.2346 16.0312 27.1914 16.0042 27.1807 16.0042V15.8154L27.267 15.8047L27.213 15.7453L27.2022 15.6914V15.6374L27.2616 15.5673L27.1375 15.5565C27.1375 15.5565 27.0134 15.6105 27.0134 15.6051C27.0242 15.6051 27.0134 15.8262 27.0134 15.8262L26.8732 15.864L26.7599 16.0474L26.8192 16.096H26.8354Z" fill="#C0A12E"/>
<path fill-rule="evenodd" clip-rule="evenodd" d="M28.0923 15.481L27.9682 15.5241L28.1085 15.632L28.1624 16.0636L28.2326 15.9665L28.443 15.9287L28.2326 15.7507L28.1732 15.5026L28.0923 15.4756V15.481ZM27.8927 16.8296C27.81 16.7361 27.7686 16.6858 27.7686 16.6786L27.7363 16.8134L27.623 16.7325H27.569L27.6554 16.6894V16.7325L27.7255 16.7811L27.7363 16.7649L27.7093 16.6786C27.7956 16.6408 27.8064 16.6408 27.8172 16.6408C27.8603 16.6786 27.9197 16.7703 27.9197 16.7703L28.006 16.7379H27.9089L27.8657 16.5545L28.0599 16.425L28.1031 16.4736C28.1031 16.4736 28.1031 16.4736 28.0923 16.4628V16.1715L28.1301 16.1175C28.0923 16.1337 28.0438 16.1445 28.0168 16.1499C28.033 16.1661 28.0276 16.2848 28.0276 16.2848L27.9413 16.3873C27.9125 16.4987 27.8855 16.5545 27.8603 16.5545L27.8172 16.6354L27.65 16.657C27.5637 16.5887 27.5205 16.5473 27.5205 16.5329L27.5097 16.425C27.4558 16.4358 27.4558 16.4358 27.4234 16.2902L27.3263 16.247L27.3155 16.1553L27.2292 16.1391L27.213 16.0582C27.177 16.051 27.1591 15.9737 27.1591 15.8262V15.7939L27.2723 15.7723L27.3533 15.837L27.2238 15.8586C27.2238 15.8586 27.24 15.9881 27.24 16.0096C27.2831 16.0204 27.2831 16.0258 27.2993 16.1121L27.3964 16.1283L27.4072 16.2254L27.4773 16.2524C27.4773 16.2524 27.5205 16.3765 27.5313 16.3927C27.5906 16.4196 27.6014 16.5437 27.6014 16.5437C27.6014 16.5329 27.6715 16.5976 27.6715 16.5976L27.7848 16.5869C27.8388 16.4898 27.8442 16.4898 27.8657 16.4898C27.8388 16.4898 27.8765 16.3603 27.8765 16.3603L27.9736 16.2632L27.9628 16.1283C27.9628 16.1032 28.0186 16.0834 28.1301 16.069L28.0492 15.6752L27.9413 15.5241L28.0815 15.4594L28.238 15.481L28.2973 15.7399L28.4807 15.8964V15.9827L28.2703 16.042L28.1678 16.1985L28.1786 16.4466L28.2488 16.5545L28.1516 16.6138L28.0438 16.479L27.9197 16.5869L28.0438 16.7541L27.8927 16.835V16.8296ZM27.3209 16.8404L27.3047 16.7811V16.5005L27.2076 16.5437L27.2238 16.6246L27.213 16.6786L27.1051 16.6354L27.0728 16.301L26.9757 16.096L26.8192 16.1337L26.7491 16.0744L26.8516 15.8478L27.008 15.7885C27.008 15.7885 26.9918 15.632 26.9918 15.6105C27.035 15.5619 27.1159 15.5295 27.1321 15.5188C27.1752 15.508 27.2831 15.5295 27.2831 15.5295L27.2292 15.7291L27.1699 15.686L27.2238 15.5835C27.2238 15.5835 27.1699 15.5943 27.1645 15.5835C27.1806 15.5943 27.1213 15.6159 27.0674 15.6266C27.0781 15.6536 27.0781 15.7076 27.0781 15.8208L26.9001 15.8964L26.8138 16.0636L27.0134 16.0474L27.0943 16.2362L27.1645 16.5976V16.5005L27.3425 16.4574L27.4126 16.7325L27.3856 16.7649L27.5583 16.7433L27.5475 16.8242L27.3209 16.8458V16.8404Z" fill="#C0A12E"/>
<path fill-rule="evenodd" clip-rule="evenodd" d="M27.5475 16.398L27.6446 16.3441L27.6338 16.2362L27.5475 16.22L27.5097 16.1877L27.6176 16.2038L27.7417 16.1931L27.7848 16.1715C27.7578 16.2146 27.7471 16.2092 27.7471 16.2092C27.7363 16.2092 27.6769 16.2416 27.6769 16.2416V16.3441C27.6769 16.3441 27.8981 16.3711 27.8873 16.3711C27.8873 16.3711 27.8873 16.4142 27.8765 16.4142C27.8657 16.4142 27.6554 16.3657 27.6554 16.3657L27.5259 16.4466L27.5421 16.398H27.5475Z" fill="#613F22"/>
<path fill-rule="evenodd" clip-rule="evenodd" d="M27.4827 16.4951L27.5258 16.3873L27.6337 16.3279L27.6067 16.2254L27.6499 16.2362V16.2254L27.7362 16.1931V16.2092L27.6823 16.2632L27.6931 16.3441C27.8333 16.3513 27.9034 16.3603 27.9034 16.3711C27.8765 16.4304 27.8711 16.4304 27.6607 16.3819L27.4827 16.4898V16.4951Z" fill="#C0A12E"/>
<path fill-rule="evenodd" clip-rule="evenodd" d="M28.0923 15.7669L27.9682 15.864L27.8819 16.0043H27.8495L27.7255 15.8478H27.5852C27.5852 15.8478 27.5151 16.042 27.5151 16.0474C27.5151 16.0528 27.4558 16.0366 27.4558 16.0366L27.3047 15.8802C27.3047 15.8802 27.2616 15.7993 27.2669 15.7993H27.6338L27.623 15.632C27.623 15.632 27.569 15.6159 27.5421 15.5997C27.5582 15.5997 27.7363 15.5997 27.7363 15.5997L27.6661 15.6482V15.7939H27.9736L28.0869 15.7723L28.0923 15.7669Z" fill="#C0A12E"/>
<path fill-rule="evenodd" clip-rule="evenodd" d="M27.6608 15.8047L27.267 15.8424L27.4774 16.0097C27.4774 16.0097 27.5097 15.9341 27.5475 15.837L27.6608 15.8208V15.8047ZM27.5043 16.0852L27.445 16.0744L27.2616 15.891L27.2346 15.7885L27.6392 15.7669L27.5961 15.6482L27.6392 15.6266C27.6392 15.6266 27.6068 15.6374 27.5961 15.6374C27.5529 15.5619 27.623 15.5565 27.7471 15.5565H27.8712L27.6932 15.6752L27.7093 15.7885L28.0762 15.7291L27.8981 16.0258H27.8118L27.6878 15.8748L27.5907 15.891C27.5907 15.891 27.5475 16.042 27.5475 16.0528L27.5043 16.0852Z" fill="#C0A12E"/>
<path fill-rule="evenodd" clip-rule="evenodd" d="M27.4396 15.8478H27.4773C27.4773 15.8478 27.5043 15.864 27.5043 15.8802V15.9071C27.5043 15.9071 27.4881 15.9341 27.4773 15.9341H27.4396C27.4396 15.9341 27.4126 15.9233 27.4126 15.9071V15.8802C27.4126 15.8802 27.4288 15.8478 27.4396 15.8478Z" fill="#613F22"/>
<path fill-rule="evenodd" clip-rule="evenodd" d="M27.8334 15.837H27.8711C27.8711 15.837 27.8981 15.8478 27.8981 15.864V15.8964C27.8981 15.8964 27.8819 15.918 27.8711 15.918H27.8334C27.8334 15.918 27.8064 15.9072 27.8064 15.8964V15.864C27.8064 15.864 27.8172 15.837 27.8334 15.837Z" fill="#613F22"/>
<path fill-rule="evenodd" clip-rule="evenodd" d="M27.2669 15.6051L27.2292 15.5781L27.24 15.5296C27.364 15.481 27.4611 15.4486 27.6176 15.4271C27.774 15.4109 27.8981 15.4378 28.0276 15.4594C27.8873 15.508 27.7632 15.4864 27.6176 15.5026C27.4773 15.5134 27.391 15.5511 27.2669 15.5997V15.6051Z" fill="#C0A12E"/>
<path fill-rule="evenodd" clip-rule="evenodd" d="M27.2993 15.303H27.1968L27.0458 15.1465L27.1267 15.1573L27.2292 15.2005L27.2993 15.303Z" fill="#C0A12E"/>
<path fill-rule="evenodd" clip-rule="evenodd" d="M27.3802 15.3407H27.1968L26.9432 15.0926L27.2507 15.1627L27.3802 15.3407Z" fill="#C0A12E"/>
<path fill-rule="evenodd" clip-rule="evenodd" d="M27.9521 15.2436L28.1894 15.0602L28.1085 15.0494L28.0222 15.1304L27.9143 15.1519L27.9521 15.2436Z" fill="#C0A12E"/>
<path fill-rule="evenodd" clip-rule="evenodd" d="M27.8118 15.276L27.4234 15.2868L27.4342 15.249L27.5744 15.2382L27.5852 15.1789H27.6284L27.6608 15.2328L27.7902 15.2544L27.8064 15.276H27.8118Z" fill="#C0A12E"/>
<path fill-rule="evenodd" clip-rule="evenodd" d="M27.3802 15.3299L27.3856 15.249L27.5637 15.2005L27.4935 15.249H27.6068L27.5906 15.2005L27.801 15.222L27.8334 15.276L27.8118 15.3191L27.3802 15.3299Z" fill="#C0A12E"/>
<path fill-rule="evenodd" clip-rule="evenodd" d="M27.7848 15.1357H27.65L27.6446 15.071L27.7848 15.1357Z" fill="#C0A12E"/>
<path fill-rule="evenodd" clip-rule="evenodd" d="M27.5637 15.071L27.5529 15.1411L27.4234 15.1627L27.5637 15.071Z" fill="#C0A12E"/>
<path fill-rule="evenodd" clip-rule="evenodd" d="M26.8354 16.3711L26.9055 16.2093L26.8462 16.0906L26.7814 16.2578L26.8354 16.3711Z" fill="#C0A12E"/>
<path fill-rule="evenodd" clip-rule="evenodd" d="M26.9648 16.4574L27.0458 16.2632L26.8947 16.4196L26.9648 16.4574Z" fill="#C0A12E"/>
<path fill-rule="evenodd" clip-rule="evenodd" d="M26.9918 16.5114L26.8785 16.452L27.0188 16.247L26.9217 16.4466L26.9649 16.4574L26.9325 16.4412L27.0188 16.2362L26.9918 16.5114Z" fill="#C0A12E"/>
<path fill-rule="evenodd" clip-rule="evenodd" d="M30.1584 16.8943L30.0289 17.0454L30.0397 17.1695H30.3041C30.3904 17.1479 30.4173 17.1155 30.4335 17.0832C30.4605 17.04 30.4443 17.0184 30.4497 16.9591L30.1584 16.8943Z" fill="#CC202B"/>
<path fill-rule="evenodd" clip-rule="evenodd" d="M30.0181 17.191L30.0073 17.0508L30.1368 16.8889L30.4443 16.9483L30.4281 17.0885L30.4443 17.0993C30.4281 17.1371 30.4011 17.1695 30.304 17.1964H30.0127L30.0181 17.191Z" fill="#D3202B"/>
<path fill-rule="evenodd" clip-rule="evenodd" d="M30.7895 17.2558L30.6762 17.3421L30.66 17.4662L30.9082 17.4769C30.9945 17.4662 31.0053 17.45 31.0215 17.4176C31.0538 17.3745 31.0484 17.3745 31.0538 17.3205L30.7895 17.2504V17.2558Z" fill="#CC202B"/>
<path fill-rule="evenodd" clip-rule="evenodd" d="M30.9082 17.4985L30.66 17.4823V17.3475L30.7841 17.245L31.0646 17.3097L31.0215 17.423L31.0376 17.4338C31.0107 17.4715 30.9999 17.4877 30.9082 17.4985Z" fill="#D3202B"/>
<path fill-rule="evenodd" clip-rule="evenodd" d="M31.8522 16.9483L31.7281 17.0778V17.1749L31.9817 17.1857C32.068 17.1641 32.0518 17.1695 32.0788 17.1263C32.1058 17.0832 32.1058 17.0724 32.1058 17.0184L31.8522 16.9537V16.9483Z" fill="#CC202B"/>
<path fill-rule="evenodd" clip-rule="evenodd" d="M31.9871 17.1964L31.7336 17.1856L31.7174 17.0778L31.8415 16.9375L32.122 16.9968L32.0842 17.1263L32.1004 17.1371C32.0734 17.1856 32.0627 17.1856 31.9925 17.2018H31.9817L31.9871 17.1964Z" fill="#D3202B"/>
<path fill-rule="evenodd" clip-rule="evenodd" d="M32.5913 17.1749L32.451 17.2989V17.423L32.7154 17.45C32.8017 17.4284 32.8125 17.4068 32.8287 17.3691C32.8556 17.3313 32.8448 17.3259 32.8556 17.2666L32.5913 17.1749Z" fill="#CC202B"/>
<path fill-rule="evenodd" clip-rule="evenodd" d="M32.7208 17.4662L32.4511 17.4392L32.4349 17.2989L32.5859 17.1695L32.8556 17.2504L32.8449 17.3798C32.8179 17.4122 32.8017 17.4392 32.7208 17.4608V17.4662Z" fill="#D3202B"/>
<path fill-rule="evenodd" clip-rule="evenodd" d="M30.7841 13.9921L31.302 14.3266C31.3883 14.2457 31.5933 14.2942 31.6688 14.3266C31.7983 14.3589 31.9062 14.4399 32.0302 14.4614C32.2514 14.5208 32.5211 14.5585 32.7153 14.537C32.9257 14.51 33.093 14.4075 33.244 14.332V14.2834H33.1469C32.9797 14.3428 32.7531 14.3428 32.5859 14.3212C32.4079 14.2996 32.3647 14.2187 32.1058 14.1432L32.0896 14.0946C32.4079 14.1054 32.4672 14.0946 32.5967 14.0407C32.7207 14.0083 32.7801 13.9328 32.8502 13.8842V13.8249L32.7531 13.8141C32.629 13.895 32.5589 13.9112 32.3755 13.895C32.1975 13.8788 32.0518 13.7871 31.9385 13.7817C31.8145 13.7817 31.8253 13.7278 31.7012 13.7224C31.5178 13.7062 31.3128 13.7332 31.1402 13.7763C30.9298 13.8357 30.9028 13.8896 30.7895 13.9975L30.7841 13.9921Z" fill="#CC202B"/>
<path fill-rule="evenodd" clip-rule="evenodd" d="M32.5913 14.5531C32.4241 14.5531 32.2245 14.5261 32.0195 14.4722C31.9602 14.4614 31.8954 14.4344 31.8361 14.4021C31.7821 14.3751 31.7282 14.3427 31.6581 14.3319C31.4801 14.2834 31.3668 14.2888 31.3074 14.3319L30.7734 13.9975C30.8974 13.8518 30.9406 13.8033 31.1348 13.7493C31.3344 13.7008 31.5286 13.6846 31.6958 13.6954C31.7552 13.6954 31.7929 13.7116 31.8199 13.7278C31.8469 13.7386 31.8739 13.7547 31.9224 13.7547C31.9817 13.7547 32.0519 13.7817 32.122 13.8087C32.1921 13.8357 32.2784 13.868 32.3701 13.868C32.5482 13.8842 32.6183 13.8788 32.737 13.7979L32.7478 13.7871L32.8449 13.8033V13.8141V13.8249H32.8341L32.8017 13.9274C32.7478 13.9705 32.6938 14.0245 32.5913 14.0406C32.4942 14.0892 32.4349 14.1 32.2946 14.1H32.2137L32.2946 14.0676C32.4349 14.0676 32.4888 14.0568 32.5859 14.0083C32.683 13.9867 32.737 13.9435 32.7855 13.9004L32.8287 13.8357C32.6021 13.9058 32.5482 13.9166 32.3647 13.9004C32.2784 13.8896 32.1867 13.8626 32.1112 13.8357C32.0519 13.8087 31.9871 13.7871 31.9332 13.7871C31.8631 13.7871 31.8307 13.7709 31.8037 13.7547C31.7768 13.7439 31.7498 13.7224 31.6958 13.7224C31.5178 13.7062 31.3344 13.7224 31.1456 13.7709C30.9622 13.8249 30.919 13.8734 30.8381 13.9489L31.302 14.2942C31.3398 14.2348 31.4854 14.2348 31.6689 14.2834C31.739 14.2996 31.7983 14.3319 31.8523 14.3589C31.9116 14.3859 31.9656 14.4183 32.0249 14.4237C32.2784 14.4884 32.5266 14.5208 32.71 14.4992C32.8772 14.4776 33.0229 14.4021 33.1577 14.3319L33.1416 14.278C32.942 14.3535 32.7316 14.3373 32.5805 14.3158C32.4834 14.305 32.4241 14.278 32.354 14.2402C32.2946 14.2079 32.2137 14.1755 32.1004 14.1377L32.1544 14.1162C32.2569 14.1485 32.3216 14.1809 32.3755 14.2079C32.4349 14.2402 32.4996 14.2672 32.5859 14.278C32.737 14.2942 32.9366 14.3104 33.1362 14.2402H33.244L33.1847 14.3535C33.0552 14.4237 32.8934 14.5046 32.7262 14.5261C32.683 14.5261 32.6399 14.5261 32.5967 14.5261L32.5913 14.5531Z" fill="#BA2025"/>
<path fill-rule="evenodd" clip-rule="evenodd" d="M30.8866 13.9112C30.9298 13.922 30.9837 13.9382 31.0269 13.9651C31.07 13.9813 31.0538 13.9813 31.097 14.0191C31.0862 13.9759 31.097 13.9813 31.07 13.9436C31.0322 13.9112 30.9891 13.8842 30.9567 13.8626L30.8866 13.9166V13.9112Z" fill="#84373C"/>
<path fill-rule="evenodd" clip-rule="evenodd" d="M31.3074 14.278C31.3074 14.2403 31.2804 14.1971 31.2697 14.1593C31.2535 14.1216 31.2373 14.0892 31.1995 14.0515C31.2427 14.0622 31.2697 14.0838 31.2966 14.1216C31.3344 14.1593 31.3344 14.2025 31.3398 14.2618L31.302 14.278H31.3074Z" fill="#84373C"/>
<path fill-rule="evenodd" clip-rule="evenodd" d="M31.4045 13.7493C31.4045 13.7493 31.4423 13.7979 31.4585 13.8626C31.4747 13.922 31.4855 14.0029 31.4855 14.0029C31.4855 13.9597 31.4962 13.9112 31.4855 13.868C31.4747 13.8249 31.4531 13.7871 31.4531 13.7386L31.4099 13.7493H31.4045Z" fill="#84373C"/>
<path fill-rule="evenodd" clip-rule="evenodd" d="M31.8199 13.7709L31.8361 14.0137L31.863 13.7871L31.8199 13.7709Z" fill="#84373C"/>
<path fill-rule="evenodd" clip-rule="evenodd" d="M31.7228 14.2726C31.7336 14.2349 31.7336 14.1917 31.7228 14.154C31.7228 14.1162 31.7066 14.0784 31.6851 14.0353C31.7282 14.073 31.7444 14.1108 31.766 14.1594C31.766 14.2025 31.7552 14.2403 31.7228 14.2726Z" fill="#84373C"/>
<path fill-rule="evenodd" clip-rule="evenodd" d="M32.1436 14.1701C32.1436 14.1701 32.1597 14.2511 32.1436 14.3104C32.1274 14.3697 32.1058 14.3697 32.0734 14.4021C32.1166 14.3697 32.1597 14.3589 32.1813 14.3212C32.1921 14.2618 32.1543 14.1755 32.1436 14.1701Z" fill="#84373C"/>
<path fill-rule="evenodd" clip-rule="evenodd" d="M32.2191 14.0892C32.1813 14.0892 32.1813 13.9759 32.1652 13.9112C32.176 13.9004 32.1921 13.9112 32.2029 13.9328C32.2191 13.9436 32.2137 14.0407 32.2191 14.0838V14.0892Z" fill="#84373C"/>
<path fill-rule="evenodd" clip-rule="evenodd" d="M32.5104 14.0407L32.5212 13.9382H32.5589V14.0191C32.5589 14.0191 32.5158 14.0407 32.5158 14.0353L32.5104 14.0407Z" fill="#84373C"/>
<path fill-rule="evenodd" clip-rule="evenodd" d="M32.4834 14.3104C32.5104 14.3428 32.5373 14.3805 32.5427 14.4129C32.5427 14.4507 32.5319 14.4614 32.505 14.5154H32.5481C32.5751 14.4776 32.5805 14.4507 32.5805 14.4129C32.5697 14.3805 32.5535 14.3482 32.5265 14.3212L32.4726 14.3104H32.4834Z" fill="#84373C"/>
<path fill-rule="evenodd" clip-rule="evenodd" d="M32.5643 14.537L32.5104 14.5262L32.5265 14.4129L32.4726 14.3158C32.4726 14.3158 32.4888 14.3158 32.4996 14.3266H32.4834L32.5643 14.4075C32.5643 14.4399 32.5535 14.4668 32.5319 14.5046L32.5589 14.5154L32.5481 14.5046C32.5643 14.4722 32.5751 14.4453 32.5751 14.4183L32.5373 14.3374C32.5913 14.359 32.5967 14.3805 32.6075 14.4183C32.6075 14.4561 32.5967 14.483 32.5751 14.5262L32.5643 14.537Z" fill="#84363D"/>
<path fill-rule="evenodd" clip-rule="evenodd" d="M32.834 14.332L32.8448 14.4776L32.888 14.456L32.8772 14.332H32.834Z" fill="#84373C"/>
<path fill-rule="evenodd" clip-rule="evenodd" d="M30.7572 14.0137C30.6439 14.046 30.6008 14.1108 30.5468 14.1647L30.2231 13.9975C30.1692 14.0407 30.153 14.1054 30.1692 14.1701C30.1962 14.2349 30.2987 14.332 30.3688 14.3805C30.3526 14.4722 30.3256 14.5369 30.2987 14.6125C30.2555 14.6988 30.1854 14.8121 30.1854 14.8444C30.1746 14.8822 30.1584 14.9685 30.2285 14.9955C30.2825 15.0171 30.4767 14.9793 30.5414 14.9847C30.5306 15.0171 30.509 15.0818 30.5144 15.1088C30.5252 15.1303 30.5414 15.1411 30.5954 15.1411C30.5792 15.1789 30.5414 15.2167 30.563 15.2328C30.6061 15.2652 30.6493 15.2598 30.6871 15.2544C30.6709 15.2814 30.6331 15.3138 30.59 15.3569C30.5306 15.4216 30.4605 15.4864 30.4227 15.5241C30.3688 15.5997 30.3688 15.6752 30.4659 15.6698C30.4335 15.7129 30.3958 15.7507 30.3958 15.7885C30.4066 15.8316 30.4281 15.864 30.4983 15.837C30.4551 15.9341 30.4821 16.0258 30.4983 16.1283C30.4605 16.2092 30.4821 16.2794 30.4713 16.3657C30.3904 16.4088 30.385 16.4682 30.3418 16.5491C30.2987 16.6408 30.2123 16.6678 30.1638 16.8674L30.4605 16.9429C30.4713 16.9051 30.5144 16.8782 30.5144 16.835C30.5306 16.7972 30.5306 16.7433 30.5252 16.6947C30.5846 16.6138 30.7032 16.4358 30.7464 16.3387C30.8057 16.3009 30.8489 16.2848 30.9028 16.2848C30.946 16.2848 30.9838 16.3117 31.0323 16.3387C31.0053 16.4196 30.946 16.5059 30.9352 16.6138V16.9213C30.9244 16.9968 30.8381 17.0022 30.8057 17.2234L31.0701 17.2935C31.124 17.2126 31.1941 17.2072 31.2103 17.1748L31.2265 16.8566C31.2643 16.7109 31.4747 16.5868 31.4747 16.425C31.5556 16.425 31.5772 16.4358 31.6041 16.425C31.6473 16.4142 31.6581 16.3873 31.6904 16.3603C31.7012 16.4088 31.7444 16.4142 31.7714 16.4142C31.8037 16.4142 31.8739 16.3657 31.9008 16.3495C31.917 16.3765 31.9278 16.4034 31.9602 16.4088C32.0033 16.4196 32.1166 16.398 32.1598 16.3926L31.9386 16.7541C31.9278 16.7864 31.9386 16.8134 31.9224 16.8458C31.9062 16.8782 31.8792 16.8997 31.8631 16.9321L32.1112 16.9914L32.1544 16.8889C32.2083 16.8674 32.2515 16.8512 32.2784 16.8188C32.3054 16.7864 32.3054 16.7217 32.3216 16.6893C32.4025 16.63 32.532 16.4951 32.6291 16.3819C32.6884 16.3926 32.7855 16.4466 32.8125 16.5221C32.8233 16.603 32.8287 16.7649 32.7855 16.8674L32.6291 17.1209L32.6129 17.1587L32.8664 17.245L33.0229 17.1209L33.0337 16.9429C33.1146 16.8026 33.2279 16.7217 33.3412 16.6354C33.3412 16.6354 33.3519 16.4466 33.3412 16.4358C33.325 16.4196 33.298 16.425 33.2872 16.3926C33.2764 16.3549 33.2872 16.247 33.298 16.2092C33.3088 16.1877 33.3412 16.1715 33.3412 16.1499C33.298 16.1067 33.3088 15.9773 33.325 15.8802C33.325 15.7723 33.476 15.6374 33.4922 15.5781L33.5084 15.4594C33.5084 15.4594 33.4652 15.4109 33.4652 15.3947C33.4652 15.3677 33.4922 15.3299 33.5084 15.303L33.5461 15.249V14.9631C33.53 14.9253 33.5084 14.8822 33.4868 14.8822C33.4598 14.8714 33.4167 14.9038 33.3897 14.9361L33.2494 15.0386C33.1793 15.0602 33.12 15.071 32.9959 15.0386H32.8125C32.7154 15.071 32.6614 15.0764 32.5643 15.0386H32.4565C32.4241 15.0602 32.3701 15.0926 32.3324 15.098C32.2946 15.1088 32.2461 15.1088 32.2083 15.098C31.917 15.1142 31.9871 15.1357 31.9116 15.1573C31.8523 15.1411 31.8685 15.1088 31.6149 15.1088L31.5178 15.0764C31.3883 14.9955 31.2912 14.8552 31.1995 14.7042C31.4639 14.6233 31.5772 14.5531 31.6581 14.3697L31.2805 14.3805L30.7518 14.0245L30.7572 14.0137Z" fill="#F4EB38"/>
<path fill-rule="evenodd" clip-rule="evenodd" d="M30.59 15.1573L30.5037 15.1088C30.5037 15.1088 30.5037 15.044 30.5198 14.9955C30.5091 14.9955 30.4659 14.9955 30.4335 15.0063C30.3796 15.0063 30.3256 15.0171 30.2825 15.0171C30.1422 14.9847 30.1584 14.8876 30.1692 14.8391C30.1692 14.8229 30.1854 14.7797 30.2232 14.7258C30.2393 14.688 30.2663 14.6449 30.2825 14.6017C30.3095 14.5316 30.3364 14.4614 30.3526 14.3751C30.2825 14.3374 30.1854 14.2403 30.1584 14.1755C30.1314 14.1108 30.1476 14.0407 30.2124 13.9867L30.4227 14.0892L30.2124 14.0137C30.1854 14.0515 30.1692 14.1054 30.1854 14.1593C30.2124 14.2187 30.3095 14.3158 30.3796 14.3643C30.3688 14.4722 30.3472 14.5424 30.3095 14.6125C30.2933 14.6502 30.2717 14.6988 30.2501 14.742C30.2339 14.7797 30.207 14.8229 30.207 14.8444C30.1962 14.9038 30.1962 14.9577 30.2339 14.9739C30.331 14.9739 30.385 14.9739 30.4335 14.9739C30.4659 14.9739 30.5145 14.9631 30.5414 14.9631L30.5954 15.1573H30.59ZM30.4066 15.6213C30.3742 15.5889 30.3796 15.5511 30.4066 15.5134C30.4443 15.481 30.4875 15.4324 30.536 15.3785L30.6763 15.2382C30.6223 15.2706 30.59 15.2706 30.5522 15.2382L30.59 15.1519L30.6008 15.1681L30.6817 15.2329L30.6385 15.3353C30.5145 15.4486 30.4605 15.4972 30.4443 15.5295C30.4174 15.5619 30.4012 15.5997 30.4066 15.6159V15.6213ZM30.4659 16.3387C30.4551 16.2254 30.4659 16.1715 30.4929 16.1175C30.4659 15.9935 30.4497 15.918 30.4821 15.8316C30.412 15.864 30.385 15.8316 30.3742 15.7939C30.3742 15.7615 30.3904 15.7291 30.4174 15.6914C30.4281 15.7399 30.4066 15.7669 30.4066 15.7885L30.4389 15.7777L30.5091 15.8478C30.4767 15.9287 30.4821 15.9935 30.4983 16.0744C30.4821 16.1823 30.4821 16.2308 30.4821 16.2848C30.4713 16.3064 30.4659 16.3225 30.4551 16.3441L30.4659 16.3387ZM31.9332 16.8296H31.9224L31.9332 16.7271L32.1544 16.3657C32.1274 16.3981 32.0573 16.4142 32.0033 16.4142L31.9008 16.3549C31.8037 16.425 31.7228 16.4736 31.6797 16.3549L31.7768 16.3765C31.7768 16.3765 31.8199 16.3657 31.9008 16.3171L31.9818 16.3765C32.0519 16.3765 32.1328 16.3657 32.1652 16.3603L31.9386 16.8296H31.9332ZM32.8826 17.245L32.6129 17.1587L32.7909 16.8404C32.8179 16.7703 32.8287 16.6516 32.8071 16.5059C32.7801 16.4466 32.6992 16.3927 32.6399 16.3765C32.5698 16.4736 32.4295 16.6138 32.3432 16.6786L32.3 16.808C32.2731 16.8404 32.2407 16.8512 32.1921 16.8674L32.1382 16.9753L31.8739 16.9267L31.9332 16.8242L31.917 16.8782L32.1274 16.9537L32.1436 16.8566C32.2137 16.8242 32.2515 16.808 32.2677 16.7865L32.3216 16.6462C32.4025 16.5869 32.5428 16.452 32.6291 16.3495C32.71 16.3495 32.8071 16.4088 32.8395 16.4952C32.8557 16.6516 32.8395 16.7703 32.8125 16.8512L32.6561 17.1101L32.8772 17.2126L33.0283 17.0939V16.9321C33.0984 16.8026 33.1955 16.7217 33.2926 16.6462C33.3466 16.4736 33.3466 16.4412 33.3466 16.4358C33.2764 16.3441 33.2872 16.2362 33.2872 16.1985C33.298 16.096 33.3034 15.9773 33.325 15.864C33.325 15.7939 33.3843 15.713 33.4383 15.6428C33.4652 15.6105 33.4922 15.5781 33.4922 15.5565L33.5084 15.4486C33.4652 15.3569 33.4814 15.3192 33.5084 15.2814L33.5462 14.9523H33.5354L33.4113 14.9362L33.271 15.0386C33.2009 15.0656 33.1308 15.0764 33.0067 15.0386H32.8233C32.737 15.0656 32.6669 15.071 32.5698 15.0386H32.4727C32.4295 15.0656 32.3863 15.0872 32.3594 15.098L32.2299 15.0818V15.0926C32.0303 15.1088 32.0087 15.1196 31.9818 15.1304H31.8847C31.8469 15.1196 31.8145 15.1034 31.6311 15.1034L31.5232 15.071C31.3991 14.9955 31.302 14.8714 31.1996 14.6934C31.4801 14.5909 31.5772 14.5154 31.6581 14.3428L31.2967 14.3751L30.7626 14.0245C30.6817 14.0461 30.6493 14.0946 30.5954 14.1378L30.5792 14.127C30.6223 14.0622 30.6763 14.0137 30.7734 13.9867L31.3182 14.3482L31.6797 14.3266C31.6203 14.5316 31.5016 14.6179 31.2319 14.6988C31.3398 14.8498 31.4315 14.9685 31.5448 15.0386L31.6311 15.0656C31.8145 15.0656 31.8577 15.0872 31.8954 15.098C31.9925 15.0818 32.0249 15.0656 32.2299 15.0494L32.354 15.0602C32.354 15.0602 32.4133 15.0279 32.4511 15.0117L32.5805 15.0009C32.6884 15.0386 32.7316 15.0333 32.8179 15.0117H33.0121C33.1362 15.0386 33.1955 15.0279 33.2549 15.0117L33.3951 14.9092C33.3951 14.9092 33.4544 14.8498 33.4922 14.8498C33.5354 14.8606 33.5731 14.9254 33.5731 14.9523L33.5839 15.2436L33.503 15.3893L33.53 15.5727C33.53 15.5727 33.4976 15.632 33.4706 15.6752C33.4167 15.7345 33.3627 15.8101 33.3627 15.8748C33.352 15.9449 33.3358 16.0906 33.3735 16.1337C33.3304 16.247 33.3196 16.3495 33.3304 16.3819C33.3897 16.4304 33.3897 16.4358 33.3735 16.6138C33.2225 16.7541 33.1362 16.8296 33.0768 16.9483L33.066 17.1209L32.8988 17.2504L32.8826 17.245ZM31.0863 17.3043L30.8165 17.2396C30.8273 17.067 30.8705 17.013 30.9029 16.9699L30.9406 16.6084C30.9406 16.5329 30.9676 16.4682 30.9946 16.4142L30.9136 16.2956C30.8705 16.2956 30.8273 16.3117 30.7626 16.3495C30.7302 16.4358 30.6062 16.6138 30.5522 16.6948C30.5522 16.7163 30.563 16.7757 30.5414 16.8296L30.4605 16.9483L30.1638 16.8728C30.1908 16.7163 30.2339 16.657 30.2771 16.6084L30.358 16.4736C30.385 16.4196 30.412 16.3819 30.4659 16.3441C30.4281 16.4088 30.412 16.4466 30.3958 16.4844C30.3526 16.5761 30.3256 16.603 30.3095 16.63C30.2663 16.6786 30.2232 16.7325 30.1962 16.862L30.4767 16.9159L30.5198 16.8134C30.5306 16.7811 30.5306 16.7325 30.5198 16.684C30.5792 16.5923 30.7033 16.4142 30.741 16.3225C30.8651 16.2524 30.9352 16.247 31.0107 16.2902C31.0539 16.3603 31.0377 16.3927 31.0269 16.4196C31 16.4736 30.973 16.5329 30.973 16.5977V16.9051C30.8921 17.0184 30.8597 17.0724 30.8327 17.2126L31.0809 17.2612C31.1078 17.218 31.1402 17.1964 31.1672 17.1803L31.2211 16.8404C31.2373 16.7703 31.2913 16.7055 31.3452 16.6408C31.4045 16.5707 31.4693 16.4952 31.4693 16.4088H31.5394L31.5772 16.3981L31.6311 16.4196L31.507 16.4304C31.507 16.5059 31.4369 16.5869 31.3776 16.6624C31.3236 16.7271 31.2805 16.7919 31.2643 16.8512L31.2481 17.1641C31.1672 17.2234 31.1348 17.245 31.1078 17.2935L31.0971 17.3043H31.0863Z" fill="#E9D62A"/>
<path fill-rule="evenodd" clip-rule="evenodd" d="M30.6223 14.4776L30.7302 14.5208C30.7302 14.5208 30.768 14.5531 30.7842 14.5531C30.8003 14.5531 30.8165 14.5369 30.8273 14.5208L30.9244 14.4722C30.8705 14.4614 30.8543 14.429 30.7949 14.429C30.7356 14.429 30.687 14.4614 30.6277 14.4722L30.6223 14.4776Z" fill="#624F1F"/>
<path fill-rule="evenodd" clip-rule="evenodd" d="M30.7841 14.5747L30.6169 14.4938H30.6277V14.483H30.6385C30.7248 14.4291 30.7625 14.4237 30.7949 14.4237L30.892 14.4668L30.7949 14.456L30.6654 14.4938L30.7895 14.5639L30.8165 14.5316L30.9136 14.4722L30.9406 14.4938L30.7895 14.5747H30.7841Z" fill="#624F1F"/>
<path fill-rule="evenodd" clip-rule="evenodd" d="M30.8165 15.7291C30.8165 15.7291 30.8003 15.7399 30.8003 15.7291C30.7842 15.6051 30.7572 15.5188 30.7194 15.4217C30.7626 15.4972 30.8003 15.6105 30.8165 15.7238V15.7291Z" fill="#C0A12E"/>
<path fill-rule="evenodd" clip-rule="evenodd" d="M31.4423 15.7399C31.4423 15.7399 31.4962 15.7507 31.5016 15.7291C31.5124 15.7022 31.4854 15.6698 31.4746 15.6428C31.4369 15.5727 31.4153 15.4972 31.4045 15.4648C31.3883 15.454 31.3721 15.4648 31.3721 15.4756C31.3991 15.5349 31.4315 15.7183 31.4423 15.7453V15.7399Z" fill="#C0A12E"/>
<path fill-rule="evenodd" clip-rule="evenodd" d="M31.7821 15.7076C31.7821 15.7076 31.7282 15.6968 31.7282 15.6806C31.7174 15.6482 31.6581 15.4055 31.6688 15.3947C31.6796 15.3947 31.7282 15.4756 31.739 15.5188C31.7498 15.5403 31.7767 15.6266 31.7821 15.7076Z" fill="#C0A12E"/>
<path fill-rule="evenodd" clip-rule="evenodd" d="M31.739 16.2092C31.739 16.2092 31.7767 16.2092 31.7929 16.1985C31.8361 16.1229 31.9008 16.0474 31.9062 16.0204C31.9224 15.9881 31.9655 15.7939 31.9601 15.7939C31.9493 15.7831 31.9062 15.891 31.8576 15.9935C31.7983 16.096 31.7336 16.1931 31.7443 16.2038L31.739 16.2092Z" fill="#C0A12E"/>
<path fill-rule="evenodd" clip-rule="evenodd" d="M31.7497 16.2308L31.7228 16.22C31.7228 16.22 31.712 16.1877 31.8361 15.9827L31.9062 15.8532C31.9062 15.8532 31.917 15.8424 31.9224 15.8424L31.863 15.9988C31.7767 16.1607 31.7551 16.1984 31.7497 16.1984V16.2092L31.8468 16.0798C31.89 16.0096 31.9278 15.9071 31.9332 15.8532C31.9709 15.8748 31.9224 16.0258 31.9224 16.0258L31.7497 16.2308Z" fill="#C0A12E"/>
<path fill-rule="evenodd" clip-rule="evenodd" d="M32.0788 16.1014C32.0788 16.1014 32.1058 15.9341 32.1166 15.9018C32.1273 15.8478 32.1327 15.7615 32.1597 15.6428C32.1867 15.8047 32.1489 15.9827 32.0788 16.1014Z" fill="#C0A12E"/>
<path fill-rule="evenodd" clip-rule="evenodd" d="M32.0788 16.1337L32.0626 16.1175C32.0626 16.1175 32.0518 16.0906 32.0788 15.9719L32.1381 15.6482C32.1975 15.8155 32.1651 15.9935 32.0842 16.1121L32.0734 16.1337H32.0788Z" fill="#C0A12E"/>
<path fill-rule="evenodd" clip-rule="evenodd" d="M32.2838 15.5619C32.2838 15.5619 32.1273 15.3246 32.1435 15.3246C32.1435 15.3138 32.2676 15.4756 32.2838 15.5026C32.2946 15.5134 32.2946 15.5403 32.2838 15.5619Z" fill="#C0A12E"/>
<path fill-rule="evenodd" clip-rule="evenodd" d="M32.6236 15.7399C32.6236 15.7399 32.6236 15.6536 32.5966 15.5673C32.5805 15.481 32.5373 15.3947 32.5427 15.3731C32.5535 15.3623 32.5805 15.3731 32.5966 15.3839C32.6074 15.4216 32.6236 15.6051 32.6506 15.7237C32.6506 15.7345 32.6398 15.7399 32.6236 15.7345V15.7399Z" fill="#C0A12E"/>
<path fill-rule="evenodd" clip-rule="evenodd" d="M32.8718 15.5241C32.8718 15.5241 32.9096 15.6051 32.9312 15.7237C32.9636 15.837 32.9851 16.042 32.9905 16.0258C33.0067 16.015 33.0067 15.9881 33.0337 15.9881C33.0714 15.9773 33.2009 15.9881 33.1901 15.9881C33.1092 15.9179 33.0391 15.8586 32.9905 15.7885C32.9366 15.7076 32.8934 15.6105 32.8665 15.5349L32.8718 15.5241Z" fill="#C0A12E"/>
<path fill-rule="evenodd" clip-rule="evenodd" d="M32.9959 16.0474H32.9797L32.9636 15.9449C32.9528 15.8856 32.9366 15.7938 32.9204 15.7237C32.9042 15.6644 32.888 15.6104 32.8665 15.5673C32.8772 15.5673 32.8772 15.5673 32.8772 15.5673C32.8772 15.5565 32.8665 15.5457 32.8665 15.5349C32.8826 15.5619 32.9096 15.5889 32.9204 15.6158C32.9582 15.659 32.9797 15.7129 33.0067 15.7561C33.0499 15.8208 33.1092 15.8694 33.1739 15.9233L32.9959 16.0366V16.0474Z" fill="#C0A12E"/>
<path fill-rule="evenodd" clip-rule="evenodd" d="M34.0963 15.1627C34.8246 15.3138 35.4935 15.4918 36.1678 15.7076C36.8421 15.9233 37.4841 16.1877 38.1314 16.4682L37.0417 18.6745C36.4268 18.4426 35.8334 18.2592 35.2238 18.0596C34.625 17.8654 34.037 17.6927 33.4274 17.5093L34.0963 15.1681V15.1627Z" fill="white"/>
<path fill-rule="evenodd" clip-rule="evenodd" d="M34.091 15.1789L33.449 17.5147L33.9993 17.6658C34.4093 17.7952 34.8246 17.9139 35.2346 18.0488L35.4989 18.1351C36.006 18.2969 36.5185 18.4641 37.0364 18.6583L38.1261 16.4628C37.5758 16.2416 36.8961 15.9611 36.1679 15.7291C35.4989 15.5134 34.8246 15.3407 34.091 15.1789ZM37.058 18.6961L37.0418 18.6853C36.5239 18.4857 36.0168 18.3239 35.4989 18.1566L35.2346 18.0703C34.8246 17.9409 34.4093 17.8168 34.0047 17.6927L33.4329 17.5201L34.0802 15.1573C34.8354 15.2976 35.5097 15.4756 36.1787 15.686C36.9069 15.9233 37.5812 16.2038 38.1422 16.4466L37.0526 18.6853L37.058 18.6961Z" fill="white"/>
<path fill-rule="evenodd" clip-rule="evenodd" d="M33.9507 15.6806C33.9507 15.6806 34.9703 15.9071 35.9521 16.2254C36.9446 16.5437 37.8995 16.9483 37.8995 16.9483C37.8887 16.9483 37.2791 18.2106 37.2791 18.2106C36.6803 17.9732 36.06 17.7521 35.445 17.5525C34.83 17.3529 34.2096 17.1641 33.5785 17.013L33.9561 15.6806H33.9507Z" fill="#CC202B"/>
<path fill-rule="evenodd" clip-rule="evenodd" d="M37.2845 18.2268H37.2683C36.6965 17.9948 36.0816 17.7737 35.4342 17.5687C34.857 17.3745 34.2259 17.1803 33.5731 17.0292L33.9346 15.6752C33.9885 15.6752 34.9865 15.8964 35.9629 16.2039C36.6048 16.4142 37.7161 16.835 37.8941 16.9321C37.8078 16.9213 36.9015 16.5437 35.9575 16.2416C34.9865 15.9233 33.9669 15.6968 33.9561 15.6968L33.5947 17.0184C34.2366 17.1479 34.8678 17.3475 35.4558 17.5363C36.0977 17.7413 36.7019 17.9625 37.2737 18.1836C37.8186 17.0778 37.8779 16.9483 37.8941 16.9321C37.9103 16.9321 37.9211 16.9429 37.9211 16.9483C37.8941 16.9807 37.4625 17.8762 37.3007 18.2106L37.2899 18.2214L37.2845 18.2268Z" fill="#D3202B"/>
<path fill-rule="evenodd" clip-rule="evenodd" d="M34.037 16.301C34.1341 16.2416 34.2043 16.2308 34.2582 16.1337H34.6196L34.6304 16.2686C34.7167 16.3064 34.7707 16.3549 34.857 16.3981C34.9433 16.4358 35.0674 16.479 35.1537 16.5167L35.9251 16.5869C36.033 16.603 36.1786 16.6462 36.2757 16.7001C36.3621 16.7541 36.4268 16.8188 36.4699 16.8997C36.6264 16.9591 36.7882 16.9915 36.9501 17.013C37.1173 17.0346 37.3169 17.0454 37.4733 17.0508C37.5542 17.0778 37.5542 17.1209 37.5165 17.1587C37.5165 17.1587 37.4302 17.2774 37.1928 17.2774C36.9501 17.2774 36.6857 17.1479 36.5616 17.1641C36.5616 17.2396 36.6911 17.3852 36.8314 17.4446V17.7844L36.7612 17.8438L36.6911 17.7952C36.7505 17.7143 36.7343 17.6172 36.7073 17.5417C36.6534 17.4608 36.648 17.4338 36.5509 17.4284C36.4268 17.4068 36.3513 17.3745 36.1894 17.272L36.1355 17.2828C36.1085 17.3421 36.0761 17.3799 35.9952 17.4122L35.8442 17.4014L35.4935 17.3205C35.4935 17.3205 35.4935 17.2666 35.5043 17.2612C35.5151 17.2612 35.6176 17.2612 35.6284 17.2612C35.7093 17.2828 35.8658 17.2828 35.8658 17.2828L35.855 17.1533L36.0923 17.1425C36.0384 16.9753 36.033 16.8728 35.8118 16.8404L35.1267 16.8566L35.1375 16.9483C34.9703 16.9267 34.6574 16.9267 34.4956 16.9753C34.4092 16.9861 34.2744 17.0346 34.215 17.0346L34.1449 17.0184C34.1018 17.0076 34.1018 16.9915 34.1179 16.9483C34.4093 16.9267 34.4578 16.9051 34.5495 16.8674C34.5495 16.835 34.5117 16.7811 34.5064 16.7757C34.3121 16.7649 34.1719 16.7757 34.1233 16.7757C34.0424 16.7541 33.9399 16.7109 33.9399 16.7109C33.9399 16.7001 33.9237 16.6354 33.9291 16.6354C33.9291 16.6354 34.0424 16.6678 34.0532 16.6678C34.1773 16.6948 34.3931 16.6786 34.447 16.657V16.5599C34.447 16.5113 34.4146 16.4736 34.4039 16.4682C34.3931 16.4682 34.2043 16.4412 34.1341 16.4412C34.0208 16.4196 34.037 16.3603 34.037 16.3117V16.301Z" fill="#000101"/>
<path fill-rule="evenodd" clip-rule="evenodd" d="M34.2582 16.9537C34.4362 16.8997 34.4793 16.8782 34.5387 16.8512L34.3661 16.7864H34.1179C34.0855 16.7757 33.9237 16.7271 33.9237 16.7055L33.9507 16.6732C33.9938 16.7055 34.0748 16.7379 34.1287 16.7541H34.5117C34.5117 16.7541 34.571 16.835 34.571 16.8728C34.4847 16.9159 34.4416 16.9375 34.2582 16.9537ZM36.0923 17.1209C36.0329 16.9699 36.006 16.8943 35.8118 16.8566L35.1375 16.8728L35.1644 16.9537C35.0781 16.9645 34.981 16.9537 34.8731 16.9537C34.7221 16.9537 34.5926 16.9699 34.5117 16.9968C34.4685 16.9968 34.4092 17.013 34.3607 17.0292C34.3013 17.04 34.2528 17.0562 34.2204 17.0562L34.0963 17.0022C34.0963 17.0022 34.1287 16.9914 34.1503 16.9914L34.2204 17.04V17.0238C34.2204 17.0238 34.3013 17.013 34.3499 17.0022C34.4038 16.986 34.4578 16.9699 34.5009 16.9699C34.6088 16.9375 34.7814 16.9321 34.8677 16.9321C34.9756 16.9321 35.0673 16.9429 35.1375 16.9483L35.1105 16.8674L35.8118 16.8296C36.0329 16.8674 36.0599 16.9699 36.1031 17.1209H36.0869H36.0923ZM36.0114 17.4392H35.8549C35.6104 17.3816 35.4881 17.3475 35.4881 17.3367C35.5043 17.2558 35.5151 17.2558 35.6392 17.2558C35.7201 17.2773 35.8765 17.2773 35.8765 17.2773L35.8495 17.1641L36.006 17.1425L35.8657 17.1802L35.8927 17.2935C35.8927 17.2935 35.7147 17.3097 35.6392 17.2935H35.5151C35.5313 17.3313 35.8549 17.4014 35.8549 17.4014L36.0114 17.4122C36.0707 17.3798 36.0977 17.3421 36.1354 17.2881C36.1516 17.2989 36.1732 17.2989 36.1894 17.3097C36.13 17.3691 36.0923 17.4068 36.0114 17.4392ZM36.7666 17.8815L36.6857 17.8276C36.7396 17.7251 36.718 17.6388 36.6965 17.5579C36.6425 17.4769 36.6263 17.4608 36.5562 17.4554C36.4429 17.4338 36.362 17.4068 36.2325 17.3151C36.389 17.3744 36.4591 17.4014 36.5562 17.4176C36.6533 17.4176 36.6695 17.4554 36.7073 17.5093C36.7612 17.6388 36.7774 17.7305 36.718 17.8114L36.772 17.8492L36.7612 17.8384L36.8205 17.779V17.45C36.6911 17.4068 36.5562 17.2504 36.5508 17.1695C36.6479 17.1533 36.7234 17.1695 36.8151 17.1964C36.9392 17.2288 37.0687 17.272 37.1928 17.272C37.4301 17.272 37.5056 17.1587 37.5056 17.1587C37.3222 17.0724 37.1226 17.0562 36.9554 17.0292C36.7882 17.0076 36.6317 16.9699 36.4645 16.9213C36.4106 16.8188 36.3512 16.7649 36.2703 16.7163C36.184 16.6624 36.0329 16.6192 35.9305 16.6084L35.159 16.5383C35.1051 16.5167 35.0512 16.4951 35.0026 16.479C34.9487 16.4574 34.8947 16.4412 34.8516 16.4196C34.8084 16.398 34.7706 16.3765 34.7383 16.3549C34.7005 16.3333 34.6681 16.3117 34.625 16.2902L34.6088 16.1445L34.269 16.1553C34.2312 16.2254 34.188 16.2524 34.1179 16.2848C34.064 16.3657 34.0586 16.4034 34.1449 16.4142C34.1611 16.4034 34.4092 16.4304 34.4146 16.4466C34.4308 16.4466 34.4739 16.4951 34.4739 16.5491V16.6516C34.3876 16.7163 34.1665 16.7001 34.0532 16.684L33.983 16.6516L33.9992 16.6354C34.2905 16.6947 34.4038 16.6624 34.447 16.6354L34.4362 16.5545C34.3822 16.4736 34.1988 16.452 34.1395 16.452C34.0154 16.4304 34.0262 16.3711 34.0262 16.3225V16.3117L34.0963 16.2524C34.1665 16.2146 34.2096 16.1931 34.2474 16.1229H34.625L34.6412 16.2686C34.6735 16.2686 34.7113 16.2955 34.7545 16.3171C34.7922 16.3387 34.8246 16.3603 34.8677 16.3819C34.9109 16.4034 34.9541 16.4196 35.008 16.4412C35.0673 16.4628 35.1213 16.479 35.1644 16.5005L35.9358 16.5653C36.0329 16.5815 36.1894 16.6246 36.2865 16.684C36.3674 16.7325 36.4375 16.7918 36.4861 16.8889C36.6371 16.9375 36.7936 16.9699 36.95 16.9914C37.1172 17.0184 37.3168 17.0292 37.4733 17.0292H37.4895L37.5596 17.0939C37.5218 17.1695 37.4355 17.2935 37.1928 17.2935C37.0525 17.2935 36.923 17.2558 36.799 17.2234C36.718 17.1964 36.6425 17.1802 36.5886 17.1802C36.5886 17.2234 36.7019 17.3691 36.8421 17.4284L36.8529 17.7952L36.7666 17.8707V17.8815Z" fill="#000101"/>
<path fill-rule="evenodd" clip-rule="evenodd" d="M35.5259 17.1047C35.6338 17.1371 35.7094 17.1425 35.8604 17.1587L36.0978 17.1479C36.0438 16.9807 36.0384 16.8782 35.8172 16.8458L35.1321 16.862L35.1429 16.9537C35.3533 17.0346 35.4504 17.0778 35.5259 17.1047Z" fill="white"/>
<path fill-rule="evenodd" clip-rule="evenodd" d="M35.8603 17.1749C35.7093 17.1641 35.6338 17.1533 35.5205 17.1155C35.3964 17.067 35.2993 17.0292 35.1429 16.9645L35.1159 16.8566L35.8172 16.8188C36.0384 16.8566 36.0653 16.9591 36.1085 17.1101H36.0923C36.033 16.9645 36.006 16.8836 35.8118 16.8512L35.1375 16.8674L35.1645 16.9483C35.3209 16.9968 35.418 17.0346 35.4881 17.067C35.6392 17.1155 35.7147 17.1263 35.8657 17.1371L36.0438 17.1263L35.8657 17.1695L35.8603 17.1749Z" fill="#000101"/>
<path fill-rule="evenodd" clip-rule="evenodd" d="M21.9588 18.2753L20.7234 13.6684L22.6115 11.392L25.2494 12.897L25.6972 17.7736C24.3539 17.8761 23.48 18.0002 21.9588 18.2753Z" fill="#2C3382"/>
<path fill-rule="evenodd" clip-rule="evenodd" d="M22.6007 11.4082L20.7396 13.6846L21.975 18.2592C23.4476 17.9948 24.3323 17.8654 25.6918 17.7575L25.2278 12.9024L22.5953 11.4082H22.6007ZM21.9534 18.2915L21.9426 18.2807L20.7126 13.6739L22.6007 11.3812L25.2602 12.8863L25.7187 17.7737C24.3431 17.8923 23.453 18.0272 21.975 18.2915H21.9588H21.9534Z" fill="#2A2875"/>
<path fill-rule="evenodd" clip-rule="evenodd" d="M17.5406 14.4399L17.9938 14.7905L17.9075 15.4055L18.4955 15.1681L18.954 15.5188L19.0241 14.9523L19.4988 14.7635L19.1051 14.3859L19.1914 13.8195C19.1914 13.8195 18.6195 14.0299 18.6195 14.0245C18.6195 14.0137 18.1988 13.6738 18.1988 13.6792C18.188 13.69 18.1017 14.2133 18.1017 14.2133L17.5406 14.4345V14.4399Z" fill="#F4EB38"/>
<path fill-rule="evenodd" clip-rule="evenodd" d="M18.4848 15.1465L18.9433 15.481L18.9972 14.9523L19.4881 14.7474L19.0835 14.4075L19.1699 13.8249C18.6358 14.0569 18.6196 14.0569 18.6196 14.0569C18.5819 14.0299 18.215 13.7224 18.1881 13.7116C18.2042 13.7224 18.1179 14.2295 18.1179 14.2295L17.5461 14.4722L18.01 14.7851L17.9291 15.4163L18.4794 15.1519L18.4848 15.1465ZM18.9649 15.5565L18.474 15.1789L17.9129 15.4271L17.9723 14.7905L17.5245 14.4614L18.0856 14.1971C18.1665 13.6739 18.1719 13.6685 18.1719 13.6685C18.1988 13.6685 18.6196 14.0029 18.6196 14.0083C18.6358 13.9975 19.1699 13.8033 19.1699 13.8033L19.1105 14.3859L19.5043 14.7474L19.0134 14.9685L18.9595 15.5565H18.9649Z" fill="#F3C527"/>
<path fill-rule="evenodd" clip-rule="evenodd" d="M17.5569 14.4507L19.4935 14.7635L19.0134 14.9631L18.5495 14.6287C18.5495 14.6287 18.9595 15.508 18.9541 15.5026C18.9541 15.5026 18.5171 15.1843 18.4955 15.1681L18.5387 14.6287C18.5387 14.6287 17.9129 15.4109 17.9129 15.4055C17.9129 15.4001 18.01 14.7905 18.01 14.7905L17.5569 14.4507Z" fill="#F3C327"/>
<path fill-rule="evenodd" clip-rule="evenodd" d="M18.0909 14.2295L18.5441 14.6071L18.1934 13.6846L18.0909 14.2295Z" fill="#F3C527"/>
<path fill-rule="evenodd" clip-rule="evenodd" d="M18.6088 14.046C18.6088 14.046 18.5387 14.6071 18.5495 14.6071C18.5926 14.5477 19.1914 13.8357 19.1806 13.8357C19.1806 13.8357 18.6196 14.0514 18.6088 14.046Z" fill="#F3C527"/>
<path fill-rule="evenodd" clip-rule="evenodd" d="M35.9952 13.6576L36.1085 14.2079L35.6445 14.6286L36.2487 14.8121L36.3728 15.3731L36.7828 14.9793L37.2737 15.1357L37.2197 14.5963L37.6567 14.2241C37.6567 14.2241 37.0795 14.0191 37.0849 14.0137C37.0849 14.0137 36.9985 13.485 36.9878 13.485C36.977 13.485 36.567 13.8303 36.567 13.8303L35.9898 13.6522L35.9952 13.6576Z" fill="#F4EB38"/>
<path fill-rule="evenodd" clip-rule="evenodd" d="M35.9952 13.6792L36.1247 14.2133L35.65 14.6502L36.2488 14.8013L36.3782 15.3461L36.772 14.9739L37.2791 15.125L37.1982 14.6071L37.6351 14.2133C37.0633 14.0407 37.0633 14.0353 37.0633 14.0299C37.0633 13.9975 36.9824 13.5336 36.977 13.5012C36.977 13.5174 36.5724 13.8519 36.5724 13.8519L35.9844 13.6738L35.9952 13.6792ZM36.3567 15.4109L36.2326 14.8229L35.6338 14.6449L36.0977 14.2025L35.9844 13.6631L36.5832 13.8249C36.8529 13.5947 36.9896 13.4796 36.9932 13.4796C36.9932 13.4796 37.1173 14.0137 37.0957 14.0299C37.1335 14.0299 37.6567 14.2079 37.6567 14.2079L37.236 14.6125L37.2899 15.1411L36.7828 15.0009L36.3513 15.4109H36.3567Z" fill="#F3C527"/>
<path fill-rule="evenodd" clip-rule="evenodd" d="M36.0006 13.6738L37.2737 15.1411L36.772 14.9901L36.6426 14.4398C36.6426 14.4398 36.3782 15.3731 36.3782 15.3677C36.3782 15.3623 36.2541 14.839 36.2541 14.8229L36.6318 14.4398C36.6318 14.4398 35.65 14.6448 35.65 14.6394C35.6608 14.6287 36.1247 14.2295 36.1247 14.2295L36.0006 13.6792V13.6738Z" fill="#F3C527"/>
<path fill-rule="evenodd" clip-rule="evenodd" d="M36.5616 13.8411L36.6587 14.4183L37.004 13.485L36.5616 13.8411Z" fill="#F3C527"/>
<path fill-rule="evenodd" clip-rule="evenodd" d="M37.0795 14.0191C37.0795 14.0191 36.6587 14.4021 36.6695 14.4075C36.7396 14.3913 37.6621 14.2295 37.6513 14.2295C37.6513 14.2295 37.0795 14.0353 37.0795 14.0245V14.0191Z" fill="#F3C527"/>
<path fill-rule="evenodd" clip-rule="evenodd" d="M20.7288 13.6954C21.4032 13.3771 22.1584 13.1236 22.946 13.0157C23.7066 12.9078 24.4726 12.897 25.2602 12.897C25.2602 12.897 25.3573 14.1 25.3573 14.1054C24.7423 14.1054 24.2892 14.1054 23.1995 14.2403C22.1206 14.3913 21.6729 14.5154 21.0148 14.7689L20.7234 13.69L20.7288 13.6954Z" fill="#CC202B"/>
<path fill-rule="evenodd" clip-rule="evenodd" d="M25.2494 12.9024L25.1092 12.9132C24.3 12.9132 23.6365 12.9294 22.9514 13.0265C22.2123 13.129 21.4787 13.3555 20.7396 13.7062L21.0309 14.7473C21.6783 14.4992 22.126 14.3751 23.2049 14.2187C24.1867 14.0946 24.6506 14.0892 25.1955 14.0892H25.3627L25.2494 12.897V12.9024ZM21.0148 14.7905L20.7234 13.7008C21.4625 13.3286 22.2123 13.102 22.9514 12.9995C23.6257 12.9024 24.3 12.8808 25.1092 12.8808H25.2656C25.2656 12.8808 25.3789 14.1 25.3789 14.1108L25.1955 14.127C24.6506 14.127 24.1867 14.1377 23.2049 14.2618C22.126 14.4129 21.6783 14.5369 21.0309 14.7905H21.0148Z" fill="#D3202B"/>
<path fill-rule="evenodd" clip-rule="evenodd" d="M21.3114 15.8154L21.6513 17.0831C22.2932 16.9213 22.9513 16.7972 23.5987 16.7109C24.2568 16.6192 24.9581 16.5653 25.5892 16.5221L25.4759 15.2814C24.807 15.2436 24.0464 15.2436 23.3559 15.3353C22.6708 15.427 21.9965 15.5835 21.3114 15.8154Z" fill="#CC202B"/>
<path fill-rule="evenodd" clip-rule="evenodd" d="M24.6398 15.2706C24.1651 15.2706 23.7389 15.2976 23.3613 15.3515C22.687 15.4378 22.0181 15.5997 21.3168 15.8316C21.3276 15.8532 21.5272 16.5707 21.6567 17.0616C22.2716 16.9105 22.919 16.7811 23.5933 16.684C24.2676 16.5922 24.9689 16.5383 25.5838 16.5005L25.4544 15.2814C25.2008 15.2814 24.9203 15.2706 24.6398 15.2706ZM21.6297 17.0993V17.0885C21.279 15.8208 21.2898 15.81 21.2898 15.8047C22.0019 15.5565 22.6762 15.4001 23.3505 15.3138C23.9709 15.2328 24.7693 15.2221 25.4706 15.2652L25.6 16.5221C24.9797 16.5761 24.2676 16.63 23.5987 16.7217C22.9136 16.8188 22.2554 16.9429 21.6405 17.0993H21.6243H21.6297Z" fill="#D3202B"/>
<path fill-rule="evenodd" clip-rule="evenodd" d="M18.2312 19.7372H36.9393V31.7346C36.4646 36.4062 31.9764 39.9018 27.8711 39.8748C23.4423 40.069 18.5441 36.4386 18.188 31.6968L18.2312 19.7372Z" fill="white"/>
<path fill-rule="evenodd" clip-rule="evenodd" d="M36.8799 19.7372L18.2312 19.802L18.2582 31.6968C18.625 36.6112 23.6796 39.9881 27.8712 39.8047C31.766 39.8047 36.389 36.4871 36.8799 31.7238V19.7318V19.7372ZM27.5313 39.9504C23.3722 39.9504 18.4902 36.5572 18.1287 31.6968L18.1665 19.7372L36.9447 19.6671L37.0148 31.7346C36.5239 36.5734 31.8307 39.9396 27.9197 39.9396C27.7687 39.9396 27.6554 39.9504 27.5313 39.9504Z" fill="#CC202B"/>
<path fill-rule="evenodd" clip-rule="evenodd" d="M18.6196 20.1526H36.5562V31.6537C36.0977 36.1365 31.7929 39.4757 27.8657 39.4541C23.6203 39.6375 18.9271 36.1634 18.5872 31.6159L18.625 20.1526H18.6196Z" fill="#CC202B"/>
<path fill-rule="evenodd" clip-rule="evenodd" d="M36.4915 20.1526L18.6142 20.2174L18.6412 31.6159C18.9918 36.3199 23.8522 39.5566 27.8495 39.3894C31.5879 39.3894 36.0222 36.212 36.4915 31.6483V20.1526ZM27.5367 39.5242C23.5447 39.5242 18.8623 36.2767 18.5171 31.6159L18.5549 20.1526L36.5562 20.0879L36.6156 31.6537C36.1409 36.2929 31.6419 39.5242 27.9035 39.5242C27.7524 39.5242 27.6392 39.5242 27.5367 39.5242Z" fill="#CC202B"/>
<path fill-rule="evenodd" clip-rule="evenodd" d="M22.2285 20.2173H25.7996V24.0528H22.2285V20.2173Z" fill="white"/>
<path fill-rule="evenodd" clip-rule="evenodd" d="M32.9473 31.74V35.5269L34.9649 35.5377C35.9305 34.0812 36.362 32.6624 36.4483 31.74H32.9473Z" fill="white"/>
<path fill-rule="evenodd" clip-rule="evenodd" d="M32.9473 31.7561L32.9635 35.5269H34.9541C36.1571 33.7143 36.3836 32.1661 36.4268 31.74L34.6088 31.7561H32.9419H32.9473ZM34.9757 35.5539L32.9473 35.5431L32.9312 31.7346L34.6142 31.7184H36.4484C36.4214 32.1769 36.184 33.7251 34.9865 35.5431L34.9757 35.5539Z" fill="white"/>
<path fill-rule="evenodd" clip-rule="evenodd" d="M29.3816 35.5647V39.2113C30.9352 38.893 32.1975 38.1216 32.915 37.6038V35.5647H29.3816Z" fill="white"/>
<path fill-rule="evenodd" clip-rule="evenodd" d="M32.8988 35.5647L29.3816 35.5862L29.4085 39.1898C30.892 38.8877 32.1274 38.154 32.9096 37.5876L32.8988 35.5647ZM29.3708 39.2275V35.5647L32.915 35.5485L32.9311 37.6038C32.1436 38.181 30.8866 38.92 29.387 39.2221H29.3708V39.2275Z" fill="white"/>
<path fill-rule="evenodd" clip-rule="evenodd" d="M22.2554 35.5647L22.2662 37.5984C23.4746 38.4561 24.861 38.974 25.7942 39.1682L25.778 35.5647H22.2608H22.2554Z" fill="white"/>
<path fill-rule="evenodd" clip-rule="evenodd" d="M25.7672 35.57L22.2608 35.5862L22.2878 37.5984C23.507 38.4561 24.8826 38.9578 25.778 39.1466L25.7672 35.57ZM25.8104 39.1951H25.7834C24.8987 39.0063 23.4962 38.4939 22.2554 37.6146L22.2393 35.5647L25.7726 35.5539L25.8104 39.1951Z" fill="white"/>
<path fill-rule="evenodd" clip-rule="evenodd" d="M18.6844 31.74C18.7976 33.2289 19.4666 34.5559 20.1301 35.4837L22.2069 35.5269V31.74H18.679H18.6844Z" fill="white"/>
<path fill-rule="evenodd" clip-rule="evenodd" d="M22.1961 31.74L18.6897 31.7561C18.83 33.4068 19.6607 34.7986 20.1462 35.4729L22.1961 35.5053V31.74ZM22.2339 35.5485H22.2177L20.1408 35.5053C19.6391 34.8148 18.7976 33.4284 18.6735 31.74L22.2177 31.7238L22.2339 35.5485Z" fill="white"/>
<path fill-rule="evenodd" clip-rule="evenodd" d="M18.6627 24.0528H22.2285V27.8883H18.6627V24.0528Z" fill="white"/>
<path fill-rule="evenodd" clip-rule="evenodd" d="M25.7996 24.0528H29.36V27.8883H25.7996V24.0528Z" fill="white"/>
<path fill-rule="evenodd" clip-rule="evenodd" d="M29.36 20.1958H32.9311V24.0312H29.36V20.1958Z" fill="white"/>
<path fill-rule="evenodd" clip-rule="evenodd" d="M32.9312 24.0528H36.5023V27.8883H32.9312V24.0528Z" fill="white"/>
<path fill-rule="evenodd" clip-rule="evenodd" d="M22.2285 27.8883H25.7996V31.713H22.2285V27.8883Z" fill="white"/>
<path fill-rule="evenodd" clip-rule="evenodd" d="M29.36 27.8883H32.9311V31.713H29.36V27.8883Z" fill="white"/>
<path fill-rule="evenodd" clip-rule="evenodd" d="M25.7996 31.713H29.36V35.5539H25.7996V31.713Z" fill="white"/>
<path fill-rule="evenodd" clip-rule="evenodd" d="M31.1186 15.686C31.1186 15.686 31.0754 15.5188 31.0646 15.4864C31.0485 15.4378 31.0215 15.3515 30.9945 15.2383C31.0808 15.3731 31.124 15.5457 31.1186 15.686Z" fill="#C0A12E"/>
<path fill-rule="evenodd" clip-rule="evenodd" d="M31.1078 15.7076C31.1078 15.7076 31.0809 15.686 31.0539 15.5565L30.973 15.2437C31.097 15.3731 31.1402 15.5457 31.124 15.6914L31.1078 15.7076Z" fill="#C0A12E"/>
</svg>
