<svg width="55" height="56" viewBox="0 0 55 56" fill="none" xmlns="http://www.w3.org/2000/svg">
<path fill-rule="evenodd" clip-rule="evenodd" d="M14.1336 46.7139V8.61801C8.12413 12.8149 4.18616 19.7792 4.18616 27.6659C4.18616 35.5527 8.12413 42.5223 14.1336 46.7139Z" fill="#000101"/>
<path fill-rule="evenodd" clip-rule="evenodd" d="M27.1558 50.8676H27.6197C32.464 50.8191 36.9522 49.287 40.6528 46.7085V8.61802C36.8875 5.9963 32.3183 4.45348 27.3878 4.45348C22.4572 4.45348 17.8881 5.9909 14.1227 8.61802V46.7139C17.8234 49.2924 22.3062 50.8245 27.1504 50.873L27.1558 50.8676Z" fill="#F7DE29"/>
<path fill-rule="evenodd" clip-rule="evenodd" d="M40.6582 8.61801V46.7139C46.6677 42.5223 50.6056 35.5527 50.6056 27.6659C50.6056 19.7792 46.6677 12.8149 40.6582 8.62341V8.61801Z" fill="#DA1F27"/>
</svg>
