<svg width="55" height="56" viewBox="0 0 55 56" fill="none" xmlns="http://www.w3.org/2000/svg">
<path fill-rule="evenodd" clip-rule="evenodd" d="M26.9724 50.9851H27.8302C40.4532 50.7532 50.6111 40.4551 50.6111 27.7888C50.6111 15.1226 40.2213 4.57639 27.404 4.57639C14.5867 4.57639 4.19153 14.9662 4.19153 27.7888C4.19153 40.6115 14.3493 50.7532 26.9724 50.9851Z" fill="#BB1F33"/>
<path fill-rule="evenodd" clip-rule="evenodd" d="M23.4229 14.8313C23.2988 14.9338 22.6407 14.8907 22.5274 14.7612C22.4033 14.6425 22.5004 14.4375 22.6946 14.3998C22.8187 14.3674 22.905 14.3458 22.959 14.3458C23.2233 14.335 22.9859 14.5724 23.11 14.6533C23.2664 14.7558 23.644 14.2379 23.4283 14.8259L23.4229 14.8313ZM31.6926 14.6587C31.8167 14.5778 31.5901 14.3404 31.8437 14.3512C31.903 14.3512 31.9947 14.3674 32.1134 14.4051C32.2968 14.4375 32.3939 14.6533 32.2806 14.7666C32.1565 14.896 31.5092 14.9392 31.3851 14.8367C31.164 14.2433 31.5416 14.7612 31.6926 14.6641V14.6587ZM40.1943 34.0626C40.0972 33.9925 39.93 33.9386 39.7736 33.9386C39.6225 33.9386 39.4121 33.8846 39.2934 33.8253C39.0291 33.7012 38.7486 33.7444 38.5112 33.9548C38.344 34.0842 38.2469 34.1112 37.6319 34.1544C36.7742 34.2245 36.4937 34.2245 36.4937 34.1651C36.4937 34.1382 36.7149 33.9871 36.9846 33.8145C37.3514 33.5664 37.5025 33.5016 37.6266 33.5286C37.8801 33.5771 38.2038 33.4477 38.4519 33.1995C38.6785 32.9676 38.7324 32.9514 39.2665 32.973C39.3905 32.973 39.3096 32.9837 39.4876 32.9568C39.4067 32.741 39.0938 32.331 38.5652 32.4605C38.344 32.5198 38.2038 32.5252 38.0851 32.4875C37.7506 32.3688 37.2975 32.6115 37.1572 32.9784C37.0871 33.1672 36.7472 33.4423 36.1377 33.8145L35.7007 34.0896L34.843 33.7606C33.8882 33.3937 33.079 33.0269 33.079 32.9676C33.079 32.9406 33.1923 32.7895 33.3433 32.6277C33.4944 32.4713 33.6077 32.3148 33.6077 32.2986C33.6077 32.2825 33.4512 32.1746 33.2408 32.0775C31.9138 31.4032 30.9698 30.4591 30.576 29.391C30.2847 28.652 30.4249 28.4794 30.7756 29.1429C31.0561 29.6769 31.2557 29.9251 31.6441 30.1624C32.0487 30.4214 32.2752 30.4807 32.4317 30.3351C32.6151 30.1678 32.5719 29.9736 32.3076 29.6715C31.7304 29.0026 31.5524 27.9939 32.0379 27.9939C32.2213 27.9939 32.2482 28.0316 32.6151 28.8839C33.1437 30.0815 33.667 30.8853 34.0878 31.1011C34.4384 31.2791 35.0156 31.1334 35.1127 30.8313C35.1936 30.5886 35.0965 30.4376 34.6812 30.1786C34.05 29.7632 33.6292 29.0997 33.4728 28.2258C33.4189 27.9453 33.4296 27.8698 33.5052 27.7457C33.6562 27.5245 33.7587 27.6054 34.1741 28.2258C34.9455 29.3856 36.3427 30.9177 36.9091 31.2359C37.9286 31.797 38.9266 31.7754 39.5308 31.1766C39.6872 31.0094 39.7412 30.9069 39.7412 30.7612C39.7412 30.4699 39.5308 30.3458 39.0669 30.3728C38.0042 30.4214 37.9071 30.4106 37.4971 30.2218C36.7149 29.8496 35.9435 28.9595 35.3501 27.7025C34.7783 26.5373 34.9185 26.4726 35.8841 27.4598C37.1842 28.7814 38.2253 29.267 39.191 28.9864C39.6549 28.8516 40.1026 28.4308 40.1026 28.1179C40.1026 27.7781 39.9354 27.681 39.4283 27.7133C39.2017 27.7295 38.7702 27.7403 38.4789 27.7403C37.988 27.7403 37.9071 27.7295 37.551 27.5515C37.3299 27.4436 36.9792 27.1901 36.7419 26.9743C36.1215 26.4025 35.0857 24.9729 35.0857 24.6978C35.0857 24.4227 35.3339 24.5306 35.9704 25.0916C36.4883 25.5448 37.4108 26.1759 37.8315 26.3701C38.0797 26.478 38.2253 26.4996 38.6839 26.505C39.1748 26.505 39.2881 26.4834 39.5362 26.3539C39.9246 26.1543 40.0649 25.9655 40.0864 25.5555C40.1404 24.9783 39.8491 24.8381 39.0075 25.0485C37.8261 25.3398 37.2004 25.1294 36.1053 24.0235C35.5766 23.4787 35.3932 23.1928 35.4634 23.0201C35.5227 22.8583 35.7547 22.9338 36.7634 23.4409C37.8747 24.0019 38.193 24.1098 38.7108 24.1098C39.1748 24.1098 39.4661 24.0181 39.7466 23.77C40.1835 23.4085 40.2914 22.9878 40.0163 22.7288C39.8059 22.5077 39.3852 22.5292 38.9104 22.7612C38.6731 22.8691 38.4195 22.9608 38.2092 22.977C37.4647 23.0471 36.3696 22.6317 35.8248 22.0815C35.458 21.7147 35.2799 21.3748 35.3878 21.2454C35.4903 21.1267 35.6522 21.1429 36.0621 21.3155C36.8605 21.6607 37.2435 21.7524 37.8531 21.7524C38.5382 21.7524 38.9482 21.6499 39.5362 21.3155C39.9947 21.0727 40.2806 20.7491 40.2806 20.5279C40.2806 20.4416 40.2267 20.2797 40.1566 20.1719C39.9893 19.8967 39.6818 19.9075 39.1046 20.2258C37.9556 20.8516 37.168 20.9379 36.3588 20.5333C36.0244 20.3607 35.4472 19.8158 35.2907 19.5191C35.2044 19.3357 35.2044 19.3087 35.2907 19.2278C35.3986 19.1199 35.4688 19.1307 36.3535 19.4544C36.8012 19.6108 36.9954 19.654 37.5133 19.6756C38.2146 19.7079 38.6353 19.6324 39.0831 19.422C39.698 19.1415 40.286 18.424 40.286 17.9763C40.286 17.7551 40.1566 17.4746 40.0217 17.4261C39.7574 17.3236 39.6171 17.3883 39.2125 17.8091C38.5922 18.4456 37.9664 18.6884 36.9738 18.6884C35.9327 18.6776 35.5011 18.5211 35.5011 18.1219C35.5011 17.8522 35.7007 17.6904 36.1323 17.6203C37.4377 17.4045 38.9482 16.7248 39.7628 15.9749C40.2375 15.5272 40.4209 15.2143 40.4101 14.8367C40.4101 14.4051 40.2267 14.1138 39.8814 14.0221C39.5847 13.9412 39.3744 14.0761 39.0669 14.5454C38.5598 15.3384 38.0473 15.7807 37.0601 16.277C36.4883 16.5575 35.5713 16.8704 35.404 16.8327C35.3501 16.8219 35.2746 16.7194 35.2206 16.5791C35.0804 16.1799 35.0534 16.1745 34.4654 16.4227C34.1687 16.5522 33.5645 16.7841 33.1168 16.9352C32.2213 17.2534 31.9246 17.453 31.7034 17.8738C31.6009 18.0788 31.5793 18.219 31.5793 18.8502C31.5685 19.5245 31.5524 19.6054 31.4391 19.7834C31.2557 20.0316 31.1046 20.1017 30.727 20.1017C30.1768 20.1017 29.8747 19.7834 29.8423 19.1469C29.8153 18.6344 29.9016 18.1975 30.1498 17.6796C30.4033 17.1509 30.6946 16.8327 31.2395 16.4766C31.7574 16.1314 32.2644 15.9749 32.9927 15.9048C33.6508 15.8455 34.3197 15.5919 34.4762 15.2683C33.8073 15.4679 33.1329 15.182 33.1977 15.1496C33.2516 15.1172 34.4546 15.1172 34.611 15.101C35.1127 15.0471 35.3015 14.9068 35.5766 14.7072C35.9003 14.4807 36.1107 14.2649 36.0352 14.1138C35.9489 13.9574 35.7115 13.9844 35.5551 14.1678C35.4688 14.2649 35.3177 14.4321 35.2044 14.5562C35.021 14.7666 34.9779 14.7828 34.4168 14.8745C33.9799 14.9338 33.899 14.9338 33.6508 14.8745C33.5699 14.8097 33.4998 14.745 33.4998 14.7126C33.4998 14.6317 33.7371 14.4969 33.9583 14.4483C34.1147 14.4159 34.4654 14.5346 34.7567 14.6209C34.6973 14.4537 34.6973 14.4429 34.5895 14.2433C34.4492 13.9682 34.2011 13.8657 33.5645 13.8495C33.1276 13.8333 32.9765 13.801 32.8902 13.72C32.8201 13.6553 32.7122 13.5798 32.642 13.542C32.5719 13.5043 32.4586 13.4827 32.3292 13.4773C31.9354 13.4665 31.3042 13.6176 30.7054 13.8819C30.371 14.0329 30.2253 14.0653 29.8801 14.0653C29.6427 14.0653 29.346 14.0329 29.2219 14.0006C28.7472 13.8765 28.6609 13.8711 28.6609 13.9682C28.6609 14.0815 29.0655 14.4483 29.3622 14.5994C29.5294 14.6803 29.5888 14.7504 29.5618 14.8097C29.5186 14.9338 29.0601 15.2413 28.7796 15.333C28.4991 15.4355 28.5099 15.5488 28.812 15.6944C28.9522 15.7592 29.0601 15.8455 29.0655 15.8778C29.0655 16.0505 28.4775 16.4335 28.2132 16.4335C27.8787 16.4335 28.0136 16.6924 28.3642 16.7679C28.5638 16.8111 28.5638 16.8327 28.3912 17.0269C28.197 17.2534 28.0244 17.329 27.8302 17.2912C27.609 17.2426 27.5658 17.329 27.6899 17.5609C27.7978 17.7335 27.7978 17.7497 27.6791 17.8253C27.636 17.863 27.5766 17.8846 27.5011 17.9062C27.5011 17.9062 27.4741 17.9062 27.4687 17.9062C27.4526 17.9062 27.4256 17.9062 27.4148 17.9062C27.3986 17.9062 27.3824 17.9062 27.3608 17.9062C27.3393 17.9062 27.3339 17.9062 27.3177 17.8954C27.2584 17.8846 27.1936 17.863 27.1397 17.8199C27.0318 17.7443 27.0318 17.7335 27.1289 17.5555C27.2584 17.3236 27.2152 17.2373 26.9994 17.2858C26.8052 17.3236 26.6218 17.2534 26.4276 17.0215C26.2496 16.8273 26.2496 16.8057 26.4546 16.7625C26.816 16.687 26.9347 16.4281 26.611 16.4281C26.3413 16.4281 25.7533 16.0451 25.7587 15.8724C25.7587 15.8347 25.872 15.7538 26.0068 15.689C26.3143 15.5434 26.3197 15.4301 26.0392 15.3276C25.7587 15.2359 25.3002 14.9284 25.2678 14.8043C25.2354 14.745 25.3056 14.6749 25.462 14.594C25.7695 14.4429 26.1741 14.0761 26.1741 13.9628C26.1741 13.8711 26.0878 13.8765 25.613 13.9952C25.4836 14.0275 25.1815 14.0599 24.9549 14.0599C24.6043 14.0599 24.4532 14.0221 24.1296 13.8765C23.5254 13.6068 22.8996 13.4611 22.5058 13.4719C22.3656 13.4719 22.2577 13.4989 22.1821 13.5366C22.1228 13.5744 22.0149 13.6499 21.9448 13.7147C21.8477 13.7956 21.6966 13.8279 21.2597 13.8441C20.6285 13.8549 20.375 13.9628 20.2347 14.2379C20.1268 14.4375 20.1268 14.4483 20.0675 14.6155C20.3642 14.5292 20.7095 14.4105 20.8767 14.4429C21.0979 14.4861 21.3352 14.6209 21.3352 14.7072C21.3352 14.7396 21.2543 14.8097 21.1788 14.8691C20.9306 14.9284 20.8551 14.9284 20.4235 14.8691C19.8517 14.7774 19.8086 14.7612 19.6252 14.5508C19.5173 14.4213 19.3608 14.2595 19.2853 14.1624C19.1181 13.979 18.8807 13.952 18.8052 14.1085C18.7189 14.2595 18.9347 14.4753 19.2529 14.7018C19.5227 14.9014 19.7277 15.0417 20.2293 15.0956C20.3858 15.1118 21.578 15.1118 21.6427 15.1442C21.702 15.1766 21.0277 15.4625 20.3534 15.2629C20.5099 15.5865 21.1842 15.8401 21.8369 15.8994C22.5759 15.9749 23.0722 16.126 23.5901 16.4712C24.1403 16.8273 24.4316 17.1455 24.6798 17.6742C24.9333 18.1921 25.0196 18.629 24.9981 19.1415C24.9603 19.7781 24.6582 20.0963 24.1134 20.0963C23.7358 20.0963 23.5847 20.0262 23.4013 19.7781C23.2772 19.6 23.261 19.5191 23.261 18.8448C23.261 18.2137 23.2341 18.0734 23.1316 17.8684C22.9212 17.4476 22.6245 17.248 21.7182 16.9298C21.2705 16.7733 20.6663 16.5468 20.3696 16.4173C19.7816 16.1691 19.7546 16.1691 19.6144 16.5737C19.5712 16.714 19.4903 16.8219 19.431 16.8273C19.2637 16.8596 18.3521 16.5522 17.7749 16.2716C16.7931 15.77 16.2752 15.3384 15.7681 14.54C15.4714 14.0653 15.2502 13.9304 14.9589 14.0167C14.6191 14.1085 14.4249 14.3998 14.4249 14.8313C14.4141 15.2089 14.6029 15.5218 15.083 15.9695C15.8922 16.7194 17.3972 17.3991 18.7081 17.6149C19.1397 17.6796 19.35 17.8414 19.35 18.1166C19.35 18.5157 18.9185 18.6722 17.8666 18.683C16.874 18.683 16.259 18.4348 15.6278 17.8037C15.2233 17.3829 15.083 17.3236 14.8295 17.4207C14.7 17.4692 14.5597 17.7551 14.5597 17.9709C14.5597 18.4186 15.1585 19.1361 15.7627 19.4166C16.2212 19.627 16.642 19.7025 17.3325 19.6702C17.8504 19.654 18.0446 19.6108 18.4923 19.449C19.377 19.1253 19.4579 19.1145 19.5604 19.2224C19.6413 19.3033 19.6413 19.3303 19.5496 19.5137C19.3986 19.805 18.8214 20.3553 18.4815 20.5279C17.6724 20.9379 16.8956 20.8462 15.7465 20.2204C15.1693 19.9021 14.851 19.8913 14.6838 20.1665C14.6137 20.2743 14.5597 20.4362 14.5597 20.5225C14.5597 20.7437 14.8564 21.0673 15.315 21.3101C15.8922 21.6445 16.3076 21.747 16.9927 21.747C17.5968 21.747 17.9852 21.6553 18.789 21.3101C19.1936 21.1375 19.3608 21.1213 19.4633 21.24C19.5604 21.3694 19.3824 21.7093 19.0264 22.0761C18.4761 22.6263 17.3757 23.0417 16.642 22.9716C16.4208 22.9554 16.1673 22.8637 15.9299 22.7558C15.466 22.5131 15.0452 22.5023 14.8349 22.7234C14.5651 22.9878 14.6676 23.4031 15.0992 23.7646C15.3797 24.0127 15.6764 24.1044 16.1349 24.1044C16.6528 24.1044 16.9765 23.9965 18.0823 23.4355C19.0911 22.9284 19.3285 22.8529 19.3878 23.0147C19.4579 23.1874 19.2637 23.4733 18.7405 24.0181C17.6454 25.124 17.0196 25.3398 15.8382 25.0431C14.9967 24.8327 14.7162 24.9783 14.7593 25.5502C14.7917 25.9601 14.9266 26.1489 15.3096 26.3485C15.5631 26.478 15.6764 26.4996 16.1619 26.4996C16.6204 26.4888 16.7769 26.4672 17.0196 26.3647C17.4296 26.1651 18.3629 25.534 18.8807 25.0862C19.5227 24.5252 19.7654 24.4173 19.7654 24.6924C19.7654 24.9675 18.7189 26.3917 18.1093 26.9689C17.872 27.1901 17.5105 27.4436 17.2947 27.5461C16.9333 27.7241 16.8632 27.7403 16.3723 27.7349C16.0756 27.7349 15.6548 27.7241 15.4175 27.7079C14.9104 27.6756 14.7485 27.7781 14.7485 28.1125C14.7485 28.4254 15.1855 28.8462 15.6548 28.981C16.6204 29.2616 17.6724 28.7761 18.9724 27.4544C19.9272 26.4726 20.0675 26.5319 19.5065 27.6972C18.9023 28.9541 18.1363 29.8442 17.3487 30.2164C16.9441 30.4052 16.8416 30.416 15.7789 30.3674C15.315 30.3405 15.1046 30.4699 15.1046 30.7558C15.1046 30.9069 15.1585 31.004 15.3258 31.1712C15.9299 31.77 16.9333 31.7916 17.9421 31.2305C18.5193 30.9177 19.9057 29.3856 20.6879 28.2204C21.0979 27.6001 21.2057 27.5245 21.346 27.7403C21.4323 27.8698 21.4431 27.9453 21.3892 28.2204C21.2219 29.0943 20.8012 29.7578 20.17 30.1732C19.7654 30.4322 19.6683 30.5886 19.7492 30.826C19.8355 31.128 20.4181 31.2737 20.7742 31.0957C21.1842 30.8799 21.7236 30.0761 22.2415 28.8785C22.6191 28.0208 22.6461 27.9885 22.8187 27.9885C23.2988 27.9885 23.137 28.9972 22.549 29.6661C22.2954 29.9628 22.2523 30.1624 22.4357 30.3297C22.5867 30.4753 22.8133 30.416 23.2233 30.157C23.6009 29.9143 23.8113 29.6715 24.081 29.1375C24.4316 28.4686 24.5719 28.6412 24.2914 29.3856C23.8976 30.4537 22.9482 31.3924 21.6265 32.0721C21.4161 32.1692 21.2489 32.2717 21.2489 32.2933C21.2489 32.3094 21.373 32.4659 21.5186 32.6223C21.6589 32.7895 21.783 32.9406 21.783 32.9622C21.783 33.0215 20.9738 33.3883 20.0136 33.7552L19.1558 34.0842L18.7189 33.8091C18.1147 33.4369 17.7695 33.1618 17.6993 32.973C17.5699 32.6061 17.1005 32.3634 16.7715 32.4821C16.6582 32.5198 16.5179 32.5144 16.2914 32.4551C15.7735 32.3256 15.4498 32.7356 15.3689 32.9514C15.5523 32.9784 15.466 32.973 15.5955 32.9676C16.1241 32.946 16.1727 32.9676 16.41 33.1941C16.6474 33.4423 16.9711 33.5717 17.2354 33.5232C17.3487 33.4962 17.5051 33.561 17.8666 33.8091C18.1363 33.9817 18.3575 34.1382 18.3575 34.1597C18.3575 34.2191 18.0877 34.2191 17.2192 34.149C16.615 34.1004 16.5071 34.0788 16.3507 33.9494C16.1026 33.739 15.822 33.7012 15.5631 33.8199C15.439 33.8846 15.2287 33.9278 15.0884 33.9332C14.9212 33.9332 14.7539 33.9925 14.6568 34.0572C14.4788 34.1867 14.3655 34.2568 14.2954 34.5158C14.6083 34.5158 14.5058 34.5158 14.7324 34.4834C15.1262 34.4241 15.1693 34.4295 15.3042 34.5428C15.3743 34.6021 15.4984 34.6992 15.5685 34.7316C15.7465 34.8179 16.1457 34.8125 16.3507 34.7046C16.4748 34.6452 16.7553 34.6237 17.3972 34.6237C17.8773 34.6129 18.2981 34.6129 18.3359 34.6237C18.3736 34.6237 18.1794 34.7531 17.9151 34.9096C17.4566 35.1901 17.4134 35.2009 17.0196 35.1955C16.5018 35.1847 16.2105 35.3411 16.1241 35.6702C16.0972 35.7889 16.0378 36.0047 16.0109 36.1341C15.9245 36.447 15.8868 36.5009 16.1241 37.0404C16.3723 36.4416 16.2914 36.625 16.3615 36.5117C16.491 36.3283 16.5395 36.3014 16.8362 36.2744C17.2408 36.242 17.435 36.1179 17.5807 35.7943C17.6885 35.5677 17.791 35.476 18.3359 35.1361C19.0803 34.6776 19.0372 34.6776 19.8787 35.066C20.2887 35.2656 20.4397 35.3627 20.5099 35.503C20.6393 35.7511 20.9037 35.8428 21.195 35.7511C21.4755 35.6702 21.5995 35.7134 21.7937 35.9831C21.8639 36.0964 21.8747 36.0748 21.9933 36.1827C22.0203 36.0154 22.0257 35.9993 22.0257 35.832C22.0257 35.5893 21.9933 35.5407 21.6859 35.2225C21.319 34.8556 21.0871 34.7585 20.8281 34.8556C20.7041 34.9096 20.6016 34.8934 20.2833 34.7423C19.9326 34.5859 19.7924 34.451 19.9758 34.451C20.0082 34.451 20.58 34.2353 21.2381 33.9871L22.4303 33.5232L22.6083 33.6688C22.932 33.917 23.4498 34.1597 23.6764 34.1597C23.876 34.1597 23.903 34.1436 23.9677 33.9278C24.0756 33.5879 24.7553 32.2609 25.1329 31.6945C25.7479 30.7396 26.0878 30.4861 26.3683 30.7936C26.4546 30.8961 26.4815 31.0094 26.4762 31.3708C26.4654 32.4497 25.8558 33.8631 25.0466 34.6614C24.6151 35.0876 24.1511 35.3196 23.5793 35.4005C23.1424 35.4598 22.8511 35.5677 22.8511 35.681C22.8511 35.7943 23.1424 36.1449 23.3258 36.2366C23.4822 36.3175 23.6333 36.3337 23.9731 36.3229C24.3777 36.3068 24.4532 36.2852 24.8416 36.0478C25.23 35.8159 25.2894 35.7997 25.3703 35.8752C25.4404 35.9507 25.4512 36.0047 25.3865 36.215C25.2624 36.6736 24.9387 36.884 24.1673 36.9811C23.3851 37.0836 23.1154 37.3155 23.3797 37.6823C23.5469 37.9143 23.8436 38.0384 24.2482 38.0384C24.7122 38.0384 25.106 37.8388 25.6346 37.3425C25.8612 37.1375 26.0662 36.9811 26.0985 37.008C26.1849 37.0566 26.1795 37.5313 26.0878 37.8172C26.0014 38.0977 25.6292 38.5347 25.4027 38.621C25.3163 38.6587 25.0952 38.7289 24.9118 38.7774C24.2644 38.9554 24.1727 39.2036 24.6205 39.5057C24.9171 39.7053 25.408 39.7161 25.7695 39.5434C26.0068 39.4355 26.6542 38.826 26.7782 38.6156C26.8915 38.416 26.9994 38.5616 26.9617 38.8529C26.9455 39.0957 26.7944 39.3654 26.4815 39.8132C26.2172 40.1692 26.3143 40.6439 26.7513 41.2966C27.0426 41.7336 27.3231 42.0411 27.4526 42.095C27.5766 42.0357 27.8571 41.7336 28.1538 41.2966C28.5908 40.6493 28.6825 40.1692 28.4182 39.8132C28.0999 39.3654 27.9596 39.0957 27.9381 38.8529C27.9003 38.5616 28.019 38.4214 28.1215 38.6156C28.2455 38.8314 28.8929 39.4409 29.1302 39.5434C29.4917 39.7161 29.9826 39.6999 30.2793 39.5057C30.7378 39.2036 30.6407 38.9554 29.9988 38.7774C29.8153 38.7289 29.5888 38.6587 29.4971 38.621C29.2705 38.5347 28.8983 38.0977 28.812 37.8172C28.7257 37.5313 28.7257 37.0566 28.8012 37.008C28.8389 36.9865 29.0493 37.1375 29.2759 37.3425C29.7938 37.8388 30.1876 38.0384 30.6515 38.0384C31.0615 38.0384 31.3528 37.9143 31.52 37.6823C31.7843 37.3155 31.52 37.0782 30.7324 36.9811C29.9718 36.884 29.6373 36.6736 29.5132 36.215C29.4539 35.9993 29.4593 35.9453 29.5402 35.8752C29.6103 35.7997 29.6697 35.8159 30.0581 36.0478C30.4465 36.2852 30.522 36.3068 30.9266 36.3229C31.2665 36.3337 31.4175 36.3229 31.5847 36.2366C31.7681 36.1395 32.0594 35.7997 32.0594 35.681C32.0594 35.5623 31.7627 35.4598 31.3204 35.4005C30.7594 35.3196 30.2847 35.0822 29.8639 34.6614C29.0547 33.8631 28.4344 32.4497 28.4236 31.3708C28.4128 31.0094 28.4397 30.8961 28.5315 30.7936C28.812 30.4861 29.1518 30.7342 29.7776 31.6945C30.1444 32.2609 30.8403 33.5879 30.9374 33.9278C31.0075 34.1382 31.0237 34.1597 31.2341 34.1597C31.4445 34.1597 31.9731 33.9224 32.2968 33.6688L32.4748 33.5232L33.667 33.9871C34.3251 34.2353 34.8969 34.451 34.9293 34.451C35.1127 34.451 34.9833 34.5805 34.6218 34.7423C34.3035 34.888 34.2011 34.9096 34.077 34.8556C33.8126 34.7585 33.5969 34.8556 33.2247 35.2225C32.9118 35.5407 32.8848 35.5893 32.8848 35.832C32.8848 35.9993 32.8848 36.0154 32.9172 36.1827C33.0305 36.0748 33.0412 36.1018 33.1168 35.9831C33.3002 35.7134 33.4242 35.6702 33.7048 35.7511C34.0015 35.8428 34.2658 35.7511 34.3899 35.503C34.46 35.3627 34.6164 35.2656 35.0318 35.066C35.8626 34.6776 35.8194 34.683 36.5692 35.1361C37.1141 35.476 37.2166 35.5677 37.3245 35.7943C37.4809 36.1179 37.6643 36.242 38.0797 36.2744C38.371 36.3014 38.4195 36.3283 38.5436 36.5117C38.6245 36.625 38.5328 36.4416 38.7918 37.0404C39.0183 36.4956 38.986 36.447 38.905 36.1341C38.8727 36.0047 38.8187 35.7889 38.781 35.6702C38.7001 35.3411 38.4034 35.1901 37.8855 35.1955C37.4971 35.1955 37.4539 35.1955 37.0008 34.9096C36.7365 34.7531 36.5423 34.6237 36.58 34.6237C36.607 34.6129 37.0278 34.6129 37.5079 34.6237C38.1552 34.6237 38.4357 34.6506 38.5598 34.7046C38.754 34.8125 39.164 34.8179 39.342 34.7316C39.4121 34.6992 39.5254 34.6021 39.6063 34.5428C39.7304 34.4241 39.7736 34.4241 40.1674 34.4834C40.3939 34.5158 40.2914 34.5158 40.6151 34.5158C40.5342 34.2568 40.4209 34.1921 40.2483 34.0572L40.1943 34.0626Z" fill="#000101"/>
</svg>
