<svg width="55" height="55" viewBox="0 0 55 55" fill="none" xmlns="http://www.w3.org/2000/svg">
<path fill-rule="evenodd" clip-rule="evenodd" d="M14.2011 46.5802V8.48975C8.19169 12.6867 4.25372 19.6509 4.25372 27.5377C4.25372 35.4244 8.19169 42.3887 14.2011 46.5802Z" fill="#334094"/>
<path fill-rule="evenodd" clip-rule="evenodd" d="M26.862 50.7393H28.0812C32.7744 50.6153 37.1277 49.0994 40.7205 46.5856V8.48974C36.9659 5.86802 32.3968 4.3306 27.4662 4.3306C22.5356 4.3306 17.9665 5.86803 14.2012 8.49514V46.5802C17.8047 49.0994 22.158 50.6153 26.8566 50.7393H26.862Z" fill="#F4F4F4"/>
<path fill-rule="evenodd" clip-rule="evenodd" d="M40.7205 8.48975V46.5856C46.7407 42.3941 50.6787 35.4298 50.6787 27.5377C50.6787 19.6455 46.7407 12.6813 40.7205 8.48975Z" fill="#D61E34"/>
</svg>
