<svg width="55" height="55" viewBox="0 0 55 55" fill="none" xmlns="http://www.w3.org/2000/svg">
<path fill-rule="evenodd" clip-rule="evenodd" d="M27.0616 50.611H27.86C40.4939 50.4007 50.6733 40.0918 50.6733 27.4094C50.6733 14.7269 40.2835 4.2023 27.4662 4.2023C14.6489 4.2023 4.25372 14.5921 4.25372 27.4094C4.25372 40.2267 14.4277 50.4007 27.0616 50.611Z" fill="#C4212B"/>
<path fill-rule="evenodd" clip-rule="evenodd" d="M4.25372 27.404H50.6733C50.6625 14.5867 40.2781 4.2023 27.4608 4.2023C14.6435 4.2023 4.25372 14.5867 4.25372 27.404Z" fill="white"/>
<path fill-rule="evenodd" clip-rule="evenodd" d="M6.75674 37.8963L22.4925 27.404L6.75674 16.9171C5.15997 20.0675 4.25909 23.6332 4.25909 27.4094C4.25909 31.1855 5.15997 34.7459 6.75674 37.8963Z" fill="#2A467D"/>
</svg>
