<svg width="55" height="56" viewBox="0 0 55 56" fill="none" xmlns="http://www.w3.org/2000/svg">
<path fill-rule="evenodd" clip-rule="evenodd" d="M27.1537 50.9905H28.0222C40.6453 50.764 50.7923 40.4659 50.7923 27.7889C50.7923 15.1118 40.4079 4.58179 27.5906 4.58179C14.7733 4.58179 4.37817 14.9716 4.37817 27.7889C4.37817 40.6062 14.536 50.764 27.1483 50.9905H27.1537Z" fill="white"/>
<path fill-rule="evenodd" clip-rule="evenodd" d="M27.1537 50.9905H28.0222C40.6453 50.764 50.7923 40.4659 50.7923 27.7889C50.7923 25.0754 50.3284 22.4753 49.4761 20.0478H5.70522C4.84749 22.4753 4.37817 25.0754 4.37817 27.7889C4.37817 40.4659 14.536 50.764 27.1483 50.9905H27.1537Z" fill="#303E99"/>
<path fill-rule="evenodd" clip-rule="evenodd" d="M27.1537 50.9905H28.0222C37.9426 50.8125 46.3365 44.4039 49.476 35.5191H5.7052C8.84479 44.4039 17.2386 50.8071 27.1537 50.9905Z" fill="#BB1F33"/>
<path fill-rule="evenodd" clip-rule="evenodd" d="M7.63644 39.6459C7.97629 39.8239 8.32154 39.9804 8.68837 40.0775C9.57306 39.8293 10.3445 39.2791 11.1429 38.826C14.1961 36.9757 16.6938 34.1166 17.7565 30.6749C19.1321 26.2784 18.6412 21.6283 18.3067 17.1132C18.2528 16.4928 18.3499 15.4139 17.4274 15.484H7.90617C5.66746 19.0498 4.37817 23.2629 4.37817 27.7835C4.37817 32.304 5.57035 36.1719 7.63105 39.6405L7.63644 39.6459Z" fill="white"/>
<path fill-rule="evenodd" clip-rule="evenodd" d="M8.68834 16.1853V39.387C19.4234 34.1921 18.2474 25.5825 17.5407 16.1853H8.68834ZM6.97829 38.4699C5.32219 35.271 4.38354 31.6405 4.38354 27.7889C4.38354 23.5596 5.51639 19.5946 7.49077 16.1853H8.69374V39.387C8.08956 39.0957 7.51774 38.7882 6.98369 38.4699H6.97829Z" fill="#BB1F33"/>
<path fill-rule="evenodd" clip-rule="evenodd" d="M9.93989 22.5454C11.0727 22.5454 12.2218 22.7504 13.3276 22.977C13.004 21.8981 13.004 21.24 13.3276 20.1611C12.2218 20.3822 11.0727 20.5926 9.93989 20.5926H7.43146C6.81648 20.5926 6.18533 20.5333 5.57036 20.4362C5.30603 21.2076 5.09564 21.9952 4.91223 22.8044C5.74838 22.6587 6.59531 22.5454 7.43146 22.5454H9.93989Z" fill="white"/>
<path fill-rule="evenodd" clip-rule="evenodd" d="M10.9163 26.7693C12.0491 26.7693 13.1981 26.9743 14.304 27.2009C13.9803 26.122 13.9803 25.4692 14.304 24.3903C13.1981 24.6115 12.0491 24.8165 10.9163 24.8165H6.46041C5.84005 24.8165 5.21429 24.7518 4.59392 24.6601C4.48603 25.4153 4.42669 26.1813 4.39972 26.9527C5.08482 26.8448 5.77531 26.7693 6.46041 26.7693H10.9163Z" fill="white"/>
<path fill-rule="evenodd" clip-rule="evenodd" d="M7.27496 17.0754C7.49614 18.1759 7.70652 19.3195 7.70652 20.4416V34.8125H9.67011V20.4416C9.67011 19.3195 9.8805 18.1705 10.1017 17.0754C9.02278 17.3991 8.35386 17.3991 7.27496 17.0754Z" fill="white"/>
<path fill-rule="evenodd" clip-rule="evenodd" d="M5.66203 35.4167C6.19608 34.9959 6.54133 34.3485 6.54133 33.6203C6.54133 32.4982 5.73216 31.565 4.65326 31.3654C4.87443 32.7626 5.21429 34.1166 5.66203 35.4167Z" fill="#303E99"/>
<path fill-rule="evenodd" clip-rule="evenodd" d="M8.68836 29.9736C7.07541 29.9736 5.75916 31.2845 5.75916 32.892C5.75916 34.4996 7.07541 35.8105 8.68836 35.8105C10.3013 35.8105 11.6176 34.505 11.6176 32.892C11.6176 31.2791 10.3013 29.9736 8.68836 29.9736Z" fill="#303E99"/>
<path fill-rule="evenodd" clip-rule="evenodd" d="M13.1442 31.3276C11.8711 31.3276 10.8461 32.3526 10.8461 33.6149C10.8461 34.8772 11.8711 35.9075 13.1442 35.9075C13.3977 35.9075 13.6351 35.859 13.8563 35.7835C14.4604 35.1793 14.9783 34.5481 15.426 33.89C15.4368 33.8037 15.453 33.712 15.453 33.6149C15.453 32.3526 14.4173 31.3276 13.1442 31.3276Z" fill="#303E99"/>
<path fill-rule="evenodd" clip-rule="evenodd" d="M6.97826 38.4699C7.51232 38.7882 8.08413 39.0903 8.68832 39.387C11.6283 37.9629 13.6512 36.2798 15.0538 34.3971H5.33295C5.75372 35.8158 6.30935 37.1753 6.97287 38.4699H6.97826Z" fill="#303E99"/>
</svg>
