<svg width="56" height="56" viewBox="0 0 56 56" fill="none" xmlns="http://www.w3.org/2000/svg">
<path fill-rule="evenodd" clip-rule="evenodd" d="M27.7465 51.7118H28.2866C41.2559 51.563 51.7339 41.0079 51.7339 28C51.7339 14.9921 41.1292 4.30473 28.0551 4.28819H27.9835C14.9095 4.30473 4.30475 14.915 4.30475 28C4.30475 41.085 14.7827 51.563 27.752 51.7118H27.7465Z" fill="#273A8F"/>
<path fill-rule="evenodd" clip-rule="evenodd" d="M16.348 48.6417V7.35275C11.5362 10.0756 7.77165 14.4354 5.80945 19.6716V36.3228C7.77165 41.5591 11.5362 45.9189 16.348 48.6417Z" fill="white"/>
<path fill-rule="evenodd" clip-rule="evenodd" d="M4.89451 33.2693H51.1386C51.5244 31.5717 51.7284 29.8079 51.7284 28C51.7284 26.1921 51.5244 24.4284 51.1386 22.7307H4.89451C4.50869 24.4284 4.30475 26.1921 4.30475 28C4.30475 29.8079 4.50869 31.5717 4.89451 33.2693Z" fill="white"/>
<path fill-rule="evenodd" clip-rule="evenodd" d="M13.7134 46.911V9.08897C11.6685 10.6323 9.8937 12.5008 8.44409 14.6173V41.3882C9.8937 43.5047 11.6685 45.3677 13.7134 46.9165V46.911Z" fill="#C52034"/>
<path fill-rule="evenodd" clip-rule="evenodd" d="M4.45352 30.6346H51.5795C51.6787 29.7693 51.7338 28.8929 51.7338 28C51.7338 27.1071 51.6787 26.2307 51.5795 25.3709H4.45352C4.35431 26.2362 4.29919 27.1126 4.29919 28C4.29919 28.8874 4.35431 29.7693 4.45352 30.6346Z" fill="#C52034"/>
</svg>
