<svg width="55" height="56" viewBox="0 0 55 56" fill="none" xmlns="http://www.w3.org/2000/svg">
<path fill-rule="evenodd" clip-rule="evenodd" d="M27.0994 50.9851H27.8276C40.4777 50.7855 50.6679 40.4767 50.6679 27.7835C50.6679 15.0902 40.2835 4.57639 27.4662 4.57639C14.6489 4.57639 4.25372 14.9662 4.25372 27.7835C4.25372 40.6007 14.4493 50.7909 27.094 50.9851H27.0994Z" fill="#D1202A"/>
<path fill-rule="evenodd" clip-rule="evenodd" d="M10.8889 16.1853C17.2922 16.1853 22.4925 21.3802 22.4925 27.7889C22.4925 34.1975 17.2922 39.387 10.8889 39.387C9.51874 39.387 8.20249 39.1496 6.98333 38.7127C5.24631 35.4598 4.25372 31.743 4.25372 27.7889C4.25372 23.8347 5.24631 20.1125 6.98873 16.8596C8.19709 16.4281 9.51334 16.1907 10.8835 16.1907L10.8889 16.1853Z" fill="white"/>
<path fill-rule="evenodd" clip-rule="evenodd" d="M13.7804 18.4996C18.9106 18.4996 23.0697 22.6587 23.0697 27.7835C23.0697 32.9082 18.9106 37.062 13.7804 37.062C8.65025 37.062 4.50189 32.9028 4.50189 27.7835C4.50189 22.6641 8.66104 18.4996 13.7804 18.4996Z" fill="#D1202A"/>
<path fill-rule="evenodd" clip-rule="evenodd" d="M20.6961 27.7835L26.2039 29.5798L27.0994 26.8178L20.6961 27.7835Z" fill="white"/>
<path fill-rule="evenodd" clip-rule="evenodd" d="M20.6961 27.7835L26.2039 25.9925L27.0994 28.7491L20.6961 27.7835Z" fill="white"/>
<path fill-rule="evenodd" clip-rule="evenodd" d="M24.7042 22.2649V28.064H27.5957L24.7042 22.2649Z" fill="white"/>
<path fill-rule="evenodd" clip-rule="evenodd" d="M24.7042 22.2649L28.1081 26.9581L25.7615 28.6628L24.7042 22.2649Z" fill="white"/>
<path fill-rule="evenodd" clip-rule="evenodd" d="M24.7042 33.302L28.1081 28.6088L25.7615 26.9042L24.7042 33.302Z" fill="white"/>
<path fill-rule="evenodd" clip-rule="evenodd" d="M24.7042 33.302V27.4976H27.5957L24.7042 33.302Z" fill="white"/>
<path fill-rule="evenodd" clip-rule="evenodd" d="M31.183 24.3741L25.6698 26.1651L26.5599 28.9271L31.183 24.3741Z" fill="white"/>
<path fill-rule="evenodd" clip-rule="evenodd" d="M31.183 24.3741L27.7737 29.0673L25.4325 27.3627L31.183 24.3741Z" fill="white"/>
<path fill-rule="evenodd" clip-rule="evenodd" d="M31.183 31.1928L27.7737 26.4996L25.4325 28.2042L31.183 31.1928Z" fill="white"/>
<path fill-rule="evenodd" clip-rule="evenodd" d="M31.183 31.1928L25.6698 29.4018L26.5599 26.6452L31.183 31.1928Z" fill="white"/>
</svg>
