<svg width="55" height="56" viewBox="0 0 55 56" fill="none" xmlns="http://www.w3.org/2000/svg">
<path fill-rule="evenodd" clip-rule="evenodd" d="M5.63226 20.0532H49.3977C46.215 11.0444 37.6162 4.58719 27.5231 4.58719C17.43 4.58719 8.8204 11.0444 5.63226 20.0532Z" fill="#C72127"/>
<path fill-rule="evenodd" clip-rule="evenodd" d="M27.0214 50.9905H28.0194C37.9075 50.7802 46.2743 44.3877 49.4031 35.5246H5.63226C8.76646 44.3877 17.1225 50.7802 27.016 50.9905H27.0214Z" fill="#C72127"/>
<path fill-rule="evenodd" clip-rule="evenodd" d="M5.63226 35.5245H49.4031C50.2554 33.1024 50.7194 30.5023 50.7194 27.7942C50.7194 25.0862 50.2554 22.4753 49.3923 20.0532H5.63226C4.77453 22.4753 4.31061 25.0808 4.31061 27.7942C4.31061 30.5077 4.77453 33.1078 5.63226 35.5245Z" fill="white"/>
</svg>
