<svg width="44" height="44" viewBox="0 0 44 44" fill="none" xmlns="http://www.w3.org/2000/svg">
<path d="M44 21.9599C44.0211 34.1115 34.1875 43.9789 22.0401 44C9.88853 44.0211 0.0211451 34.1875 3.39283e-05 22.0401C-0.0210773 9.88853 9.81253 0.0211451 21.9641 3.39283e-05C34.1115 -0.0210773 43.9789 9.81253 44 21.9599Z" fill="#323334"/>
<path d="M3.6818 20.0894C3.6818 20.0894 2.41935 22.6101 1.82823 25.9119C1.51579 27.5797 1.60023 28.2257 2.88802 30.0624C5.35381 33.5711 6.27004 34.5295 7.11448 34.3859C7.95893 34.2424 11.9278 33.3811 13.089 33.0982C13.9672 32.8828 13.9672 32.6717 14.3176 31.1433C14.6681 29.6148 15.2254 27.4868 15.3647 26.313C15.5041 25.1435 15.3267 25.1772 14.305 23.9021C13.2832 22.627 10.8512 19.3674 10.3572 18.7636C9.86316 18.1599 9.61827 18.3372 8.45716 18.5188C7.29604 18.6961 5.53959 19.1648 4.69514 19.3759C3.85069 19.5912 3.85069 19.8023 3.67758 20.0894H3.6818Z" fill="white"/>
<path d="M5.37491 8.15314C5.37491 8.15314 4.29824 9.59714 3.31868 11.2945C2.77823 12.2825 2.9429 13.7054 3.27224 16.4414C3.60157 19.1774 3.87179 19.1774 4.90202 18.9579C5.93225 18.7383 8.8076 18.1303 9.5676 17.9656C10.3276 17.801 10.9229 16.4836 11.6238 15.3352C12.3289 14.1825 15.1367 10.5514 15.7025 9.97715C16.2387 9.50003 16.0825 9.0187 15.9221 7.74358C15.7616 6.46846 15.3774 3.82534 15.0312 3.72823C14.685 3.63111 11.9996 3.63534 10.9905 3.572C9.98138 3.50867 7.4227 5.57757 5.37069 8.15314H5.37491Z" fill="white"/>
<path d="M15.7025 26.4312C15.7025 26.4312 14.647 30.6999 14.2923 32.3466C14.115 33.3135 14.0812 33.5288 16.0741 34.8546C18.0628 36.1762 19.0592 36.9615 19.701 37.3204C20.3385 37.6793 20.9086 37.6793 22.7537 37.2444C24.5988 36.8095 26.427 36.4211 27.187 36.0917C27.9301 35.7666 29.0997 33.1868 29.6275 31.4642C30.1553 29.7415 30.5817 28.3439 29.8344 27.7359C29.087 27.1279 28.2004 26.199 26.9886 25.3757C25.781 24.5523 24.7508 23.4799 24.2906 23.6952C23.8303 23.9106 19.0634 25.1097 17.2183 25.6037C16.3443 25.8528 15.7701 26.0639 15.7025 26.4355V26.4312Z" fill="white"/>
<path d="M19.435 43.3202C19.435 43.3202 20.3048 39.6764 20.4441 38.794C20.5834 37.9115 20.8959 37.8735 22.1583 37.6582C23.4208 37.4429 26.7775 36.4464 27.3728 36.2353C27.9681 36.02 28.3228 35.9102 29.3404 36.6871C30.3579 37.464 32.6295 39.1613 33.4022 39.6891C33.9637 40.0775 31.367 41.9564 27.9808 42.8811C24.0583 43.9493 19.4012 43.9198 19.435 43.3202Z" fill="white"/>
<path d="M16.4076 9.01449C16.4076 9.01449 15.939 6.37981 15.7701 4.93158C15.597 3.48335 15.7701 3.65646 17.6616 2.84157C19.5574 2.0309 24.0626 1.00067 25.0337 0.916223C26.0006 0.827556 27.1406 1.12733 29.5895 2.35601C32.0342 3.58468 32.6675 4.01113 32.7984 4.73313C32.9251 5.45513 33.2248 8.77382 33.2713 10.3065C33.2291 11.3705 32.8659 11.2438 31.063 11.9869C29.2137 12.7469 27.453 13.4901 27.0224 13.7392C26.4355 13.9883 25.4475 13.4014 23.8261 12.3501C22.3821 11.4169 19.4223 10.1376 18.1556 9.76605C16.889 9.39449 16.5639 9.63516 16.4161 9.01871L16.4076 9.01449Z" fill="white"/>
<path d="M26.6424 14.9256C26.6424 14.9256 25.7388 19.0423 25.3081 21.145C24.8775 23.159 25.0083 23.4672 26.2244 24.3835C27.4404 25.2997 28.8295 26.6128 29.5684 27.1786C30.3073 27.7486 30.7844 28.4072 33.1277 27.7401C36.0748 26.9041 36.856 26.6804 37.768 26.3764C38.68 26.0681 38.8531 25.7177 39.1951 24.0541C39.5413 22.3906 39.7946 19.8952 39.9678 18.5356C40.1409 17.1803 39.8791 16.9607 38.794 15.8672C37.7089 14.7736 35.6653 13.0256 34.8842 12.2403C34.1031 11.4549 33.5373 11.3663 32.5831 11.7209C31.6288 12.0714 29.0279 13.0425 28.0737 13.5661C27.1195 14.0938 26.7732 14.1361 26.6466 14.9256H26.6424Z" fill="white"/>
<path d="M42.4631 16.4879C42.4631 16.4879 41.0487 16.9565 40.6138 17.1634C40.1789 17.3703 40.2422 18.7679 40.0691 20.1992C39.896 21.6306 39.3809 24.375 39.0389 25.5995C38.8362 26.1821 39.6426 26.6719 40.314 27.757C41.3569 29.4502 41.91 30.3833 42.1422 30.0582C42.3744 29.7373 43.8691 26.4355 43.8058 20.9761C43.6284 18.523 43.1893 16.0741 42.4673 16.4836L42.4631 16.4879Z" fill="white"/>
<path d="M1.18645 28.5973C1.18645 28.5973 1.39334 27.9977 1.57489 28.3101C1.75645 28.6226 3.82957 32.0384 5.51425 33.8624C6.10958 34.4366 6.26581 34.5928 6.34603 35.6611C6.42625 36.7335 6.29536 36.9911 5.67469 36.3662C5.05402 35.7413 2.04778 31.9624 1.18645 28.593V28.5973Z" fill="white"/>
<path d="M26.4861 0.498229C26.4861 0.498229 26.1737 0.392673 26.047 0.523562C25.9204 0.654452 26.6424 0.861342 27.909 1.40601C29.1757 1.95068 31.1433 2.93869 31.9708 3.51291C32.5408 3.85069 32.7731 3.92669 33.2628 3.7198C33.7526 3.50869 33.9088 3.43269 33.3388 3.12024C32.7688 2.8078 29.1462 0.882453 26.4819 0.494007L26.4861 0.498229Z" fill="white"/>
<g style="mix-blend-mode:screen">
<path d="M25.9457 36.8771C25.9457 36.8771 23.2055 37.5526 21.4448 37.9453C20.2879 38.0931 20.4314 40.0395 19.9248 42.1844C19.9248 42.1844 20.6214 39.7018 20.9719 38.8109C21.3223 37.92 22.7537 38.1775 25.9457 36.8728V36.8771Z" fill="#979797"/>
</g>
<g style="mix-blend-mode:screen">
<path d="M6.46848 7.24115C6.46848 7.24115 8.96804 4.61913 9.9856 4.05335C11.0032 3.4918 14.8539 3.86757 14.8539 3.86757C14.8539 3.86757 12.1558 3.95624 10.8849 4.02802C9.61405 4.0998 6.4727 7.24115 6.4727 7.24115H6.46848Z" fill="white"/>
</g>
<path d="M20.2625 2.2589C20.2625 2.2589 24.1386 1.13156 25.3503 1.0809C26.5579 1.03023 28.9815 2.03934 31.6499 3.55935C28.6775 2.24201 26.4566 1.38067 25.5488 1.3849C24.641 1.3849 20.2625 2.2589 20.2625 2.2589Z" fill="white"/>
<path d="M5.74225 19.473C5.74225 19.473 9.20871 18.5905 9.73227 18.6792C10.2516 18.7679 14.3387 24.3623 14.3387 24.3623C14.3387 24.3623 10.7752 19.9923 9.73227 19.4688C8.68937 18.9452 5.74225 19.4772 5.74225 19.4772V19.473Z" fill="white"/>
<path d="M36.2269 13.697C36.2269 13.697 38.5955 15.9136 39.288 16.6103C39.9804 17.307 39.9424 17.3492 39.3386 22.4497C39.6173 19.1985 39.7778 17.8432 39.1655 17.0199C38.5533 16.2007 36.2269 13.6927 36.2269 13.6927V13.697Z" fill="url(#paint0_linear_1_78)"/>
<g style="mix-blend-mode:screen">
<path d="M14.8412 28.4368C14.8412 28.4368 14.2796 30.9786 13.9756 32.1186C13.6674 33.2586 12.5907 33.1066 9.81671 33.6808C12.7427 32.7942 13.4647 32.6886 13.7181 31.9117C13.9756 31.1348 14.8412 28.4368 14.8412 28.4368Z" fill="white"/>
</g>
<g style="mix-blend-mode:screen">
<path d="M14.8876 30.2144C14.8876 30.2144 15.4914 27.719 15.7068 26.7099C16.0065 25.7472 17.915 25.6121 19.9121 25.0844C19.9121 25.0844 18.0459 25.7008 16.8341 26.1821C15.6181 26.6677 15.6223 28.2848 14.8876 30.2144Z" fill="white"/>
</g>
<path d="M16.0445 34.6477C16.0445 34.6477 18.2316 36.2057 19.1943 36.8475C20.157 37.4935 20.689 37.5442 23.1928 37.0037C25.6966 36.4633 26.389 36.1931 26.389 36.1931C26.389 36.1931 22.8719 36.9531 21.0606 37.008C19.2492 37.0629 16.0445 34.6477 16.0445 34.6477Z" fill="white"/>
<g style="mix-blend-mode:screen">
<path d="M25.4263 21.8037C25.4263 21.8037 26.4143 16.3992 26.7268 15.1241C27.0392 13.8532 29.2939 13.1607 31.6584 12.2023C31.6584 12.2023 28.9815 13.583 27.9344 14.2754C26.883 14.9636 26.9928 15.7616 25.4263 21.8037Z" fill="white"/>
</g>
<g style="mix-blend-mode:screen">
<path d="M27.6177 26.1568C27.6177 26.1568 29.2053 27.4488 29.7204 27.9259C30.2355 28.3988 30.2355 29.6106 28.6606 33.4191C29.3404 30.8688 30.2777 28.7028 29.3361 27.8415C28.3904 26.9801 27.6219 26.1568 27.6219 26.1568H27.6177Z" fill="white"/>
</g>
<g style="mix-blend-mode:screen">
<path d="M3.16246 31.0377C3.16246 31.0377 4.42913 32.7646 5.31158 33.74C6.08003 34.5337 6.23625 34.6731 6.24048 36.2902C6.12648 35.2431 5.98714 34.7322 5.48892 34.2128C4.99069 33.6893 3.16246 31.0377 3.16246 31.0377Z" fill="white"/>
</g>
<g style="mix-blend-mode:multiply">
<path d="M21.9641 3.39283e-05C9.81253 0.0211451 -0.0210773 9.88853 3.39283e-05 22.0401C0.0211451 34.1918 9.88853 44.0211 22.0401 44C34.1875 43.9789 44.0211 34.1115 44 21.9599C43.9789 9.81253 34.1115 -0.0210773 21.9641 3.39283e-05ZM21.7868 39.44C10.6992 39.4611 1.69315 30.9322 1.67626 20.3892C1.65938 9.85053 10.6316 1.29204 21.7193 1.27093C32.8069 1.24982 41.8087 9.77875 41.8298 20.3217C41.8467 30.8604 32.8744 39.4231 21.7868 39.44Z" fill="#CFD1D2"/>
</g>
<g style="mix-blend-mode:screen">
<path d="M18.5863 11.2903C19.1985 12.0165 18.9537 13.2325 18.0416 14.0052C17.1254 14.7821 15.8883 14.8201 15.2719 14.0981C14.6596 13.3718 14.9045 12.1558 15.8165 11.3832C16.7328 10.6063 17.9699 10.5683 18.5863 11.2903Z" fill="#4A4B4C"/>
</g>
<g style="mix-blend-mode:screen">
<path d="M14.609 15.2381C14.8792 15.559 14.7736 16.0994 14.3683 16.4414C13.963 16.7834 13.4141 16.8045 13.1396 16.4794C12.8694 16.1585 12.975 15.6181 13.3803 15.2761C13.7856 14.9341 14.3345 14.913 14.6047 15.2339L14.609 15.2381Z" fill="#4A4B4C"/>
</g>
<defs>
<linearGradient id="paint0_linear_1_78" x1="32.2579" y1="21.6293" x2="40.3851" y2="16.3964" gradientUnits="userSpaceOnUse">
<stop offset="0.29" stop-color="#9E9E9E"/>
<stop offset="0.38" stop-color="#A9A9A9"/>
<stop offset="0.56" stop-color="#C9C9C9"/>
<stop offset="0.69" stop-color="#E6E6E6"/>
<stop offset="0.74" stop-color="#EBEBEB"/>
<stop offset="0.87" stop-color="#F8F8F8"/>
<stop offset="1" stop-color="#FDFDFD"/>
</linearGradient>
</defs>
</svg>
