<svg width="31" height="27" viewBox="0 0 31 27" fill="none" xmlns="http://www.w3.org/2000/svg">
<path d="M31 24.617C30.9888 25.1721 30.7597 25.7005 30.362 26.0879C29.9644 26.4754 29.4302 26.6908 28.875 26.6875H16.5646C16.0044 26.6886 15.4666 26.4675 15.0691 26.0726L0.822344 12.2667L0.810391 12.2548C0.412177 11.8563 0.188485 11.316 0.188485 10.7527C0.188485 10.1893 0.412177 9.64903 0.810391 9.25055L9.31039 0.734615L9.33031 0.716021C9.73044 0.330551 10.2663 0.118184 10.8218 0.124895C11.3774 0.131606 11.908 0.356857 12.2987 0.75188L13.3891 1.85157C13.7621 2.22511 13.9827 2.72412 14.008 3.25141C14.158 6.28352 16.2538 8.33282 19.4785 8.59844C20.0091 8.64397 20.5037 8.8855 20.8659 9.27592C21.2281 9.66633 21.4319 10.1777 21.4375 10.7102V12.3438C21.4375 12.4847 21.3815 12.6198 21.2819 12.7194C21.1823 12.819 21.0471 12.875 20.9062 12.875H17.1875C17.0418 12.8747 16.8977 12.9043 16.764 12.9621C16.6302 13.0198 16.5098 13.1044 16.4102 13.2107C16.3105 13.3169 16.2338 13.4425 16.1847 13.5796C16.1357 13.7168 16.1153 13.8626 16.125 14.0079C16.1488 14.281 16.2749 14.535 16.4781 14.719C16.6813 14.903 16.9466 15.0034 17.2207 15H20.9395C21.0706 14.9992 21.1974 15.0469 21.2955 15.1339C21.3935 15.221 21.456 15.3412 21.4707 15.4715C21.5059 15.795 21.5791 16.1133 21.6885 16.4198C21.716 16.4996 21.724 16.5849 21.7119 16.6685C21.6998 16.7521 21.668 16.8315 21.619 16.9004C21.5701 16.9692 21.5054 17.0253 21.4304 17.0642C21.3554 17.103 21.2723 17.1234 21.1878 17.1237H18.25C18.1043 17.1234 17.9602 17.153 17.8265 17.2107C17.6927 17.2685 17.5723 17.3531 17.4727 17.4593C17.373 17.5656 17.2963 17.6912 17.2472 17.8283C17.1982 17.9655 17.1779 18.1112 17.1875 18.2566C17.211 18.5298 17.337 18.784 17.5403 18.968C17.7436 19.1521 18.009 19.2524 18.2832 19.2487H25.6875C26.3899 19.2486 27.0853 19.3879 27.7335 19.6583C28.3817 19.9288 28.9698 20.3251 29.4639 20.8243C29.9579 21.3236 30.3481 21.9158 30.6117 22.5668C30.8754 23.2178 31.0074 23.9146 31 24.617ZM6.5625 21.375C6.5625 21.0932 6.45056 20.823 6.2513 20.6237C6.05204 20.4244 5.78179 20.3125 5.5 20.3125H1.25C0.968207 20.3125 0.697956 20.4244 0.498699 20.6237C0.299442 20.823 0.1875 21.0932 0.1875 21.375C0.1875 21.6568 0.299442 21.927 0.498699 22.1263C0.697956 22.3256 0.968207 22.4375 1.25 22.4375H5.5C5.78179 22.4375 6.05204 22.3256 6.2513 22.1263C6.45056 21.927 6.5625 21.6568 6.5625 21.375ZM9.75 24.5625H3.375C3.09321 24.5625 2.82296 24.6744 2.6237 24.8737C2.42444 25.073 2.3125 25.3432 2.3125 25.625C2.3125 25.9068 2.42444 26.177 2.6237 26.3763C2.82296 26.5756 3.09321 26.6875 3.375 26.6875H9.75C10.0318 26.6875 10.302 26.5756 10.5013 26.3763C10.7006 26.177 10.8125 25.9068 10.8125 25.625C10.8125 25.3432 10.7006 25.073 10.5013 24.8737C10.302 24.6744 10.0318 24.5625 9.75 24.5625Z" fill="white"/>
</svg>
