<svg width="18" height="18" viewBox="0 0 18 18" fill="none" xmlns="http://www.w3.org/2000/svg">
<path d="M1.5 18C1.08334 18 0.729002 17.854 0.437002 17.562C0.145002 17.27 -0.000664389 16.916 2.2779e-06 16.5V14.6L4 11.05V18H1.5ZM5 18V14H13V18H5ZM14 18V9.79999L9.725 5.99999L12.75 3.32499L17.5 7.54999C17.6667 7.69999 17.7917 7.87099 17.875 8.06299C17.9583 8.25499 18 8.45899 18 8.67499V16.5C18 16.9167 17.854 17.271 17.562 17.563C17.27 17.855 16.916 18.0007 16.5 18H14ZM2.2779e-06 13.25V8.67499C2.2779e-06 8.45833 0.0416689 8.24999 0.125002 8.04999C0.208336 7.84999 0.333336 7.68333 0.500002 7.54999L8 0.899994C8.13334 0.766661 8.28767 0.670994 8.463 0.612994C8.63834 0.554994 8.81734 0.525661 9 0.524994C9.18334 0.524994 9.36234 0.554327 9.537 0.612994C9.71167 0.67166 9.866 0.767327 10 0.899994L12 2.67499L2.2779e-06 13.25Z" fill="white"/>
</svg>
