<svg width="77" height="73" viewBox="0 0 77 73" fill="none" xmlns="http://www.w3.org/2000/svg">
<path d="M74.6539 29.3179L74.6537 29.3181L58.3992 46.2556L57.7345 46.9483L57.8592 47.9002L60.8167 70.474C60.8314 70.5863 60.7975 70.6793 60.7408 70.7457C60.6853 70.8107 60.6241 70.8342 60.5619 70.8342H58.2212C58.1884 70.8342 58.1576 70.8277 58.1249 70.8124C58.1244 70.8121 58.1239 70.8119 58.1234 70.8116L38.4135 61.322L37.4806 60.8728L36.5753 61.3753L19.5883 70.8039C19.5875 70.8043 19.5868 70.8046 19.5861 70.805C19.5464 70.8264 19.5111 70.8342 19.4751 70.8342H15.7465C15.6458 70.8342 15.4804 70.7333 15.4898 70.5085L15.4899 70.5068L16.1958 53.2392L16.1959 53.2384L16.5111 45.4563L16.5439 44.6475L16.0049 44.0435L3.05415 29.5331C3.05384 29.5327 3.05353 29.5324 3.05323 29.532C2.99763 29.4689 2.9657 29.3866 2.9657 29.2982V26.8645C2.9657 26.6891 3.08027 26.5833 3.17156 26.5597C3.17229 26.5595 3.17301 26.5593 3.17374 26.5591L3.44137 26.4948L3.44138 26.4948L3.45073 26.4925L24.7532 21.2635L25.5348 21.0716L25.9657 20.3918L37.4017 2.34805L37.4035 2.34521C37.4579 2.25911 37.541 2.22385 37.6042 2.22385H38.8139C38.8771 2.22385 38.9655 2.25992 39.0237 2.35564C39.0239 2.35596 39.0241 2.35628 39.0243 2.3566L49.8309 20.3474L50.2807 21.0962L51.1356 21.2752L61.2351 23.3893L61.2351 23.3893L72.3764 25.7211L72.3766 25.7212L74.5233 26.1703C74.5235 26.1703 74.5237 26.1703 74.5239 26.1704C74.6182 26.1905 74.741 26.2957 74.741 26.4817V27.296L74.7444 27.2995V29.0805C74.7444 29.179 74.706 29.2636 74.6539 29.3179Z" stroke="white" stroke-width="4"/>
</svg>
