<svg width="76" height="73" viewBox="0 0 76 73" fill="none" xmlns="http://www.w3.org/2000/svg">
<path d="M75.7037 26.3082V28.8859C75.7037 29.4894 75.4723 30.0684 75.0604 30.4975L58.9155 47.3208L61.8531 69.7426C62.0335 71.1205 60.9885 72.3448 59.6303 72.3448H57.3054C56.9753 72.3448 56.6519 72.2715 56.3523 72.1285L36.7695 62.7L19.8893 72.0692C19.5591 72.2506 19.1949 72.3448 18.8205 72.3448H15.117C13.8405 72.3448 12.8227 71.2565 12.8772 69.9519L13.5784 52.8007L13.8916 45.0709L1.02467 30.6544C0.646834 30.2289 0.435791 29.6777 0.435791 29.1022V26.6849C0.435791 25.6245 1.14721 24.7002 2.15478 24.4525L2.4305 24.3862L23.5894 19.1924L34.9484 1.27026C35.3602 0.617977 36.0717 0.223816 36.8273 0.223816H38.0289C38.805 0.223816 39.5301 0.638905 39.9385 1.31561L50.6746 19.1889L60.706 21.2887L71.7722 23.6049L73.9065 24.0514C74.9515 24.2711 75.7003 25.2129 75.7003 26.3047L75.7037 26.3082Z" fill="url(#paint0_linear_1_1413)"/>
<path d="M75.7038 26.3081V28.8859C75.7038 29.4893 75.4723 30.0684 75.0605 30.4974L58.9156 47.3207L61.8532 69.7426C62.0336 71.1204 60.9886 72.3447 59.6304 72.3447H57.3055C56.9753 72.3447 56.6519 72.2715 56.3524 72.1285L36.7695 62.7L19.8894 72.0691C19.5592 72.2505 19.195 72.3447 18.8205 72.3447H15.1171C13.8406 72.3447 12.8228 71.2564 12.8773 69.9518L13.5785 52.8006L13.8916 45.0709L1.02473 30.6544C0.646895 30.2288 0.435852 29.6777 0.435852 29.1021V26.6849C0.435852 25.6245 1.14727 24.7001 2.15484 24.4524L2.43056 24.3862C6.83867 29.6812 12.4892 34.0309 19.1746 36.9295C38.0903 45.1267 59.3955 39.1201 71.7688 23.6083L73.9031 24.0548C74.9481 24.2745 75.697 25.2163 75.697 26.3081H75.7038Z" fill="url(#paint1_linear_1_1413)"/>
<path opacity="0.3" d="M65.5941 26.2245C64.7873 26.2733 63.9908 26.2803 63.1943 26.2733C62.3978 26.2663 61.6081 26.2384 60.8183 26.2001C59.2423 26.1198 57.6731 25.9873 56.1141 25.8199C52.254 25.3838 48.8603 24.6967 45.9738 21.805C43.8803 19.7051 42.3962 17.0576 41.1095 14.3613C39.6799 11.365 38.4579 8.26052 37.4571 5.0863C37.6409 5.67231 38.7506 6.48854 39.1659 6.96293C39.7786 7.66405 40.3709 8.37912 40.9529 9.10465C42.1681 10.622 43.3187 12.1917 44.425 13.7927C46.2222 16.3949 47.914 19.1505 50.678 20.7865C53.8675 22.6736 57.7208 23.1479 61.1655 24.4037C61.911 24.6757 62.6531 24.9548 63.3917 25.2548C64.1304 25.5548 64.8656 25.8687 65.5941 26.228V26.2245Z" fill="white"/>
<path opacity="0.3" d="M34.4514 8.47663C33.3894 12.5578 31.9972 16.6424 29.468 19.9771C26.6972 23.6396 22.6057 25.9488 18.0478 25.9592C17.898 25.9592 17.7517 25.9592 17.6019 25.9523C17.0062 25.9348 16.4071 25.9139 15.8046 25.8651C15.2532 25.8232 14.6643 25.8197 14.1605 25.6104C16.1927 24.0652 19.1847 23.3815 21.4245 22.0281C25.9382 19.3073 28.4877 14.8774 31.9019 11.0125C32.7052 10.1021 33.5528 9.28239 34.448 8.47314L34.4514 8.47663Z" fill="white"/>
<path opacity="0.2" d="M51.6243 65.5429C51.3044 65.2918 50.9776 65.0546 50.6542 64.8069L49.6739 64.0953C48.3599 63.1605 47.0188 62.2815 45.6606 61.4409C44.3059 60.5932 42.9273 59.791 41.535 59.0201C40.1428 58.2492 38.7336 57.5097 37.3108 56.8016L36.3951 56.3447L35.5509 56.8819C34.3051 57.6702 33.0763 58.4864 31.861 59.327C30.6458 60.1677 29.4511 61.0432 28.2699 61.9397C27.0921 62.8466 25.9314 63.7779 24.7979 64.7546C23.6678 65.7348 22.5479 66.7429 21.4995 67.8591C22.9495 67.4126 24.3315 66.8545 25.7033 66.272C27.0683 65.6859 28.4094 65.0546 29.7336 64.3988C31.0509 63.7326 32.3614 63.0454 33.6447 62.3234C34.6319 61.7688 35.6088 61.1932 36.5789 60.6072C37.7022 61.1758 38.8357 61.7234 39.9794 62.2536C41.4227 62.9198 42.883 63.5547 44.3637 64.1442C45.841 64.7372 47.3354 65.2988 48.8603 65.8011L50.0075 66.1708C50.3921 66.2859 50.7767 66.408 51.1648 66.5161C51.9409 66.7394 52.7238 66.9452 53.5271 67.1091C52.911 66.5545 52.2779 66.0417 51.6345 65.5464L51.6243 65.5429Z" fill="url(#paint2_linear_1_1413)"/>
<defs>
<linearGradient id="paint0_linear_1_1413" x1="38.0732" y1="9.56508" x2="38.0732" y2="79.9943" gradientUnits="userSpaceOnUse">
<stop stop-color="#FFEF00"/>
<stop offset="0.19" stop-color="#FFE200"/>
<stop offset="0.54" stop-color="#FFC000"/>
<stop offset="0.98" stop-color="#FF8F00"/>
</linearGradient>
<linearGradient id="paint1_linear_1_1413" x1="38.0732" y1="9.34527" x2="38.0732" y2="82.7359" gradientUnits="userSpaceOnUse">
<stop offset="0.13" stop-color="#FFEF00"/>
<stop offset="0.88" stop-color="#FF5500"/>
</linearGradient>
<linearGradient id="paint2_linear_1_1413" x1="37.5048" y1="42.0154" x2="37.5048" y2="77.6852" gradientUnits="userSpaceOnUse">
<stop stop-color="#FF8F00"/>
<stop offset="0.15" stop-color="#FA8900"/>
<stop offset="0.33" stop-color="#EC7A00"/>
<stop offset="0.54" stop-color="#D56000"/>
<stop offset="0.76" stop-color="#B63D00"/>
<stop offset="0.9" stop-color="#9E2200"/>
</linearGradient>
</defs>
</svg>
