<svg width="18" height="17" viewBox="0 0 18 17" fill="none" xmlns="http://www.w3.org/2000/svg">
<g clip-path="url(#clip0_4_482)">
<path d="M9.25906 0.159471L11.8164 5.29673C11.8584 5.38136 11.9397 5.43976 12.0338 5.45328L17.7523 6.27713C17.9893 6.3112 18.084 6.59997 17.9124 6.76572L13.7746 10.7644C13.7064 10.8301 13.6753 10.925 13.6914 11.0177L14.6683 16.6641C14.7087 16.898 14.4611 17.0765 14.2492 16.9659L9.13443 14.2999C9.05015 14.2561 8.94979 14.2561 8.86552 14.2999L3.75079 16.9659C3.53888 17.0762 3.29125 16.898 3.33161 16.6641L4.30852 11.0177C4.32461 10.9247 4.29352 10.8301 4.22534 10.7644L0.0875186 6.76572C-0.0840269 6.59997 0.0106095 6.31147 0.247609 6.27713L5.96615 5.45328C6.06025 5.43976 6.14152 5.38109 6.18352 5.29673L8.74088 0.159471C8.8467 -0.0533197 9.15297 -0.0533197 9.25879 0.159471H9.25906Z" fill="#F3CC30"/>
<path d="M9 1.34625L6.72109 5.72266C6.60163 5.95221 6.372 6.10552 6.11263 6.12877L1.16454 6.57652L6.39245 6.81878C6.72436 6.8342 7.02845 6.63465 7.14354 6.32561L9.00027 1.34625H9Z" fill="#F7DB5E"/>
<path d="M3.444 16.0147L3.33164 16.6645C3.29128 16.8983 3.53891 17.0768 3.75082 16.9662L8.86555 14.3002C8.94982 14.2564 9.05018 14.2564 9.13446 14.3002L14.2492 16.9662C14.4611 17.0768 14.7087 16.8983 14.6684 16.6645L13.6915 11.0181C13.6754 10.9251 13.7065 10.8304 13.7746 10.7647L17.9125 6.76604C18.084 6.6003 17.9894 6.3118 17.7524 6.27746L15.837 6.0014C12.7391 11.5131 7.99528 14.4152 3.444 16.0147Z" fill="#EDBD31"/>
</g>
<defs>
<clipPath id="clip0_4_482">
<rect width="18" height="17" fill="white"/>
</clipPath>
</defs>
</svg>
